<svg width="32" height="32" viewBox="0 0 32 32" fill="none" xmlns="http://www.w3.org/2000/svg">
<g clip-path="url(#clip0_3_41904)">
<path d="M13.4664 8.80046C13.4664 7.33379 12.2664 6.13379 10.7998 6.13379C9.46644 6.13379 8.26644 7.20046 8.13311 8.53379C8.13311 10.0005 5.73311 11.3338 4.26644 11.3338C2.39977 11.3338 0.933105 12.9338 0.933105 14.8005C0.933105 16.6671 2.53311 18.2671 4.39977 18.2671C6.26644 18.2671 7.86644 16.8005 7.86644 14.8005V14.6671C7.86644 13.2005 9.59977 11.6005 11.0664 11.6005C12.2664 11.3338 13.4664 10.2671 13.4664 8.80046Z" stroke="#EAFEC4" stroke-miterlimit="10"/>
<path d="M13.4664 8.80046C13.4664 7.33379 12.2664 6.13379 10.7998 6.13379C9.46644 6.13379 8.26644 7.20046 8.13311 8.53379C8.13311 10.0005 5.73311 11.3338 4.26644 11.3338C2.39977 11.3338 0.933105 12.9338 0.933105 14.8005C0.933105 16.6671 2.53311 18.2671 4.39977 18.2671C6.26644 18.2671 7.86644 16.8005 7.86644 14.8005V14.6671C7.86644 13.2005 9.59977 11.6005 11.0664 11.6005C12.2664 11.3338 13.4664 10.2671 13.4664 8.80046Z" stroke="#EAFEC4" stroke-miterlimit="10"/>
<path d="M19.5997 14.9338C19.5997 13.4671 18.3997 12.2671 16.9331 12.2671C15.5997 12.2671 14.3997 13.3338 14.2664 14.6671C14.2664 16.1338 11.8664 17.4671 10.3997 17.4671C8.53307 17.4671 7.06641 19.0671 7.06641 20.9338C7.06641 22.8004 8.66641 24.4004 10.5331 24.4004C12.3997 24.4004 13.9997 22.9338 13.9997 20.9338V20.8004C13.9997 19.3338 15.7331 17.7338 17.1997 17.7338C18.5331 17.4671 19.5997 16.4004 19.5997 14.9338Z" stroke="#EAFEC4" stroke-miterlimit="10"/>
<path d="M26.1329 21.6003C26.1329 20.1336 24.9329 18.9336 23.4663 18.9336C22.1329 18.9336 20.9329 20.0003 20.7996 21.3336C20.7996 22.8003 18.3996 24.1336 16.9329 24.1336C15.0663 24.1336 13.5996 25.7336 13.5996 27.6003C13.5996 29.4669 15.0663 31.0669 17.0663 31.0669C19.0663 31.0669 20.5329 29.6003 20.5329 27.6003V27.4669C20.5329 26.0003 22.2663 24.4003 23.7329 24.4003C24.9329 24.2669 26.1329 23.0669 26.1329 21.6003Z" stroke="#EAFEC4" stroke-miterlimit="10"/>
<path d="M16.5332 5.06689C17.6378 5.06689 18.5332 4.17146 18.5332 3.06689C18.5332 1.96233 17.6378 1.06689 16.5332 1.06689C15.4286 1.06689 14.5332 1.96233 14.5332 3.06689C14.5332 4.17146 15.4286 5.06689 16.5332 5.06689Z" stroke="#EAFEC4" stroke-miterlimit="10" stroke-linecap="round" stroke-linejoin="round"/>
<path d="M22.7998 11.3335C23.9044 11.3335 24.7998 10.4381 24.7998 9.3335C24.7998 8.22893 23.9044 7.3335 22.7998 7.3335C21.6952 7.3335 20.7998 8.22893 20.7998 9.3335C20.7998 10.4381 21.6952 11.3335 22.7998 11.3335Z" stroke="#EAFEC4" stroke-miterlimit="10" stroke-linecap="round" stroke-linejoin="round"/>
<path d="M29.0664 17.7334C30.171 17.7334 31.0664 16.838 31.0664 15.7334C31.0664 14.6288 30.171 13.7334 29.0664 13.7334C27.9618 13.7334 27.0664 14.6288 27.0664 15.7334C27.0664 16.838 27.9618 17.7334 29.0664 17.7334Z" stroke="#EAFEC4" stroke-miterlimit="10" stroke-linecap="round" stroke-linejoin="round"/>
</g>
<defs>
<clipPath id="clip0_3_41904">
<rect width="32" height="32" fill="white"/>
</clipPath>
</defs>
</svg>
