<svg width="40" height="40" viewBox="0 0 40 40" fill="none" xmlns="http://www.w3.org/2000/svg">
<g clip-path="url(#clip0_3_53340)">
<path d="M6.54652 12.9712C6.54652 12.9712 5.60135 16.3237 9.04335 16.7189L25.5557 18.5155C25.5557 18.5155 28.1082 18.567 28.3442 17.3492" stroke="#C6FF01" stroke-miterlimit="10" stroke-linecap="round"/>
<path d="M1.9248 19.3224C1.9248 19.3224 3.98797 20.1711 4.7708 18.0103" stroke="#C6FF01" stroke-miterlimit="10" stroke-linecap="round"/>
<path d="M8.99434 30.1464C11.3271 30.1464 13.2182 28.2553 13.2182 25.9226C13.2182 23.5898 11.3271 21.6987 8.99434 21.6987C6.66158 21.6987 4.77051 23.5898 4.77051 25.9226C4.77051 28.2553 6.66158 30.1464 8.99434 30.1464Z" stroke="#C6FF01" stroke-miterlimit="10" stroke-linecap="round"/>
<path d="M8.99432 27.6732C9.96118 27.6732 10.745 26.8894 10.745 25.9225C10.745 24.9557 9.96118 24.1719 8.99432 24.1719C8.02745 24.1719 7.24365 24.9557 7.24365 25.9225C7.24365 26.8894 8.02745 27.6732 8.99432 27.6732Z" stroke="#C6FF01" stroke-miterlimit="10" stroke-linecap="round"/>
<path d="M31.779 30.1054C34.1118 30.1054 36.0028 28.2143 36.0028 25.8815C36.0028 23.5488 34.1118 21.6577 31.779 21.6577C29.4463 21.6577 27.5552 23.5488 27.5552 25.8815C27.5552 28.2143 29.4463 30.1054 31.779 30.1054Z" stroke="#C6FF01" stroke-miterlimit="10" stroke-linecap="round"/>
<path d="M38.3357 23.9193C38.3096 23.8681 38.2881 23.8216 38.2689 23.7676C37.9276 22.8058 37.9991 21.002 37.9991 21.002C37.9924 18.516 35.1257 17.9636 35.1257 17.9636L29.3729 16.5068L23.2949 13.7555C20.7786 12.589 19.3884 12.7101 19.3884 12.7101L8.00608 12.8051C4.27091 12.8051 2.70791 15.769 2.15591 17.2695C1.97958 17.7488 1.90808 18.262 1.91874 18.7726C1.98341 21.8656 1.49025 22.6421 1.49025 22.6421C0.679745 25.529 3.84341 25.8816 3.84341 25.8816L4.77458 25.8828C4.79641 23.5688 6.67508 21.6986 8.99441 21.6986C11.3172 21.6986 13.1994 23.5745 13.2152 25.8935L27.5581 25.9118C27.5579 25.9015 27.5549 25.892 27.5549 25.8815C27.5549 23.5486 29.4461 21.6576 31.7787 21.6576C34.1116 21.6576 36.0026 23.5486 36.0026 25.8815C36.0026 25.8955 35.9986 25.9083 35.9984 25.9223C36.4054 25.9223 37.3994 25.9223 37.8464 25.9223C38.4142 25.9223 38.6357 25.51 38.6421 24.9175C38.6461 24.5598 38.4217 24.0868 38.3357 23.9193Z" stroke="#C6FF01" stroke-miterlimit="10"/>
<path d="M31.779 27.6322C32.7459 27.6322 33.5297 26.8484 33.5297 25.8815C33.5297 24.9147 32.7459 24.1309 31.779 24.1309C30.8121 24.1309 30.0283 24.9147 30.0283 25.8815C30.0283 26.8484 30.8121 27.6322 31.779 27.6322Z" stroke="#C6FF01" stroke-miterlimit="10" stroke-linecap="round"/>
<path d="M37.9991 21.0019C37.9991 21.0019 36.0274 22.3664 33.9897 19.5439" stroke="#C6FF01" stroke-miterlimit="10" stroke-linecap="round"/>
</g>
<defs>
<clipPath id="clip0_3_53340">
<rect width="40" height="40" fill="white"/>
</clipPath>
</defs>
</svg>
