<svg width="28" height="28" viewBox="0 0 28 28" fill="none" xmlns="http://www.w3.org/2000/svg">
<g clip-path="url(#clip0_3_56766)">
<path opacity="0.3" d="M5.83325 5.83301V22.1663H22.1666V5.83301H5.83325ZM16.3333 19.833H8.16659V17.4997H16.3333V19.833ZM19.8333 15.1663H8.16659V12.833H19.8333V15.1663ZM19.8333 10.4997H8.16659V8.16634H19.8333V10.4997Z" fill="#F1FCDB"/>
<path d="M8.16667 17.5003H16.3333V19.8337H8.16667V17.5003ZM8.16667 12.8337H19.8333V15.167H8.16667V12.8337ZM8.16667 8.16699H19.8333V10.5003H8.16667V8.16699ZM22.1667 3.50033H17.29C16.8 2.14699 15.5167 1.16699 14 1.16699C12.4833 1.16699 11.2 2.14699 10.71 3.50033H5.83333C5.67 3.50033 5.51833 3.51199 5.36667 3.54699C4.91167 3.64033 4.50333 3.87366 4.18833 4.18866C3.97833 4.39866 3.80333 4.65533 3.68667 4.93533C3.57 5.21533 3.5 5.50699 3.5 5.83366V22.167C3.5 22.482 3.57 22.797 3.68667 23.077C3.80333 23.357 3.97833 23.602 4.18833 23.8237C4.50333 24.1387 4.91167 24.372 5.36667 24.4653C5.51833 24.4887 5.67 24.5003 5.83333 24.5003H22.1667C23.45 24.5003 24.5 23.4503 24.5 22.167V5.83366C24.5 4.55033 23.45 3.50033 22.1667 3.50033ZM14 3.20866C14.4783 3.20866 14.875 3.60533 14.875 4.08366C14.875 4.56199 14.4783 4.95866 14 4.95866C13.5217 4.95866 13.125 4.56199 13.125 4.08366C13.125 3.60533 13.5217 3.20866 14 3.20866ZM22.1667 22.167H5.83333V5.83366H22.1667V22.167Z" fill="#F1FCDB"/>
</g>
<defs>
<clipPath id="clip0_3_56766">
<rect width="28" height="28" fill="white"/>
</clipPath>
</defs>
</svg>
