<svg width="28" height="28" viewBox="0 0 28 28" fill="none" xmlns="http://www.w3.org/2000/svg">
<g clip-path="url(#clip0_3_56772)">
<path opacity="0.3" d="M22.4933 10.0337L21.6766 8.62199L20.1949 9.21699L18.9583 9.71866L17.8966 8.90199C17.4416 8.55199 16.9633 8.27199 16.4616 8.07366L15.2249 7.57199L15.0383 6.25366L14.8166 4.66699H13.1833L12.9616 6.24199L12.7749 7.56033L11.5383 8.07366C11.0599 8.27199 10.5816 8.55199 10.0799 8.92533L9.02992 9.71866L7.80493 9.22866L6.32326 8.62199L5.50659 10.0337L6.76659 11.0137L7.80493 11.8303L7.64159 13.1487C7.60659 13.4987 7.58326 13.767 7.58326 14.0003C7.58326 14.2337 7.60659 14.502 7.64159 14.852L7.80493 16.1703L6.76659 16.987L5.50659 17.967L6.32326 19.3787L7.80493 18.7837L9.04159 18.282L10.1033 19.0987C10.5583 19.4487 11.0366 19.7287 11.5383 19.927L12.7749 20.4287L12.9616 21.747L13.1833 23.3337H14.8049L15.0266 21.7587L15.2133 20.4403L16.4499 19.9387C16.9283 19.7403 17.4066 19.4603 17.9083 19.087L18.9583 18.2937L20.1716 18.7837L21.6533 19.3787L22.4699 17.967L21.2099 16.987L20.1716 16.1703L20.3349 14.852C20.3816 14.4903 20.3933 14.2453 20.3933 14.0003C20.3933 13.7553 20.3699 13.4987 20.3349 13.1487L20.1716 11.8303L21.2099 11.0137L22.4933 10.0337ZM13.9999 18.667C11.4216 18.667 9.33326 16.5787 9.33326 14.0003C9.33326 11.422 11.4216 9.33366 13.9999 9.33366C16.5783 9.33366 18.6666 11.422 18.6666 14.0003C18.6666 16.5787 16.5783 18.667 13.9999 18.667Z" fill="#F1FCDB"/>
<path d="M22.6684 15.143C22.7151 14.7697 22.7501 14.3963 22.7501 13.9997C22.7501 13.603 22.7151 13.2297 22.6684 12.8563L25.1301 10.9313C25.3517 10.7563 25.4101 10.4413 25.2701 10.1847L22.9367 6.14801C22.8317 5.96134 22.6334 5.85634 22.4234 5.85634C22.3534 5.85634 22.2834 5.86801 22.2251 5.89134L19.3201 7.05801C18.7134 6.59134 18.0601 6.20634 17.3484 5.91467L16.9051 2.82301C16.8701 2.54301 16.6251 2.33301 16.3334 2.33301H11.6667C11.3751 2.33301 11.1301 2.54301 11.0951 2.82301L10.6517 5.91467C9.94006 6.20634 9.28672 6.60301 8.68006 7.05801L5.77506 5.89134C5.70506 5.86801 5.63506 5.85634 5.56506 5.85634C5.36672 5.85634 5.16839 5.96134 5.06339 6.14801L2.73006 10.1847C2.57839 10.4413 2.64839 10.7563 2.87006 10.9313L5.33172 12.8563C5.28506 13.2297 5.25006 13.6147 5.25006 13.9997C5.25006 14.3847 5.28506 14.7697 5.33172 15.143L2.87006 17.068C2.64839 17.243 2.59006 17.558 2.73006 17.8147L5.06339 21.8513C5.16839 22.038 5.36672 22.143 5.57672 22.143C5.64672 22.143 5.71672 22.1313 5.77506 22.108L8.68006 20.9413C9.28672 21.408 9.94006 21.793 10.6517 22.0847L11.0951 25.1763C11.1301 25.4563 11.3751 25.6663 11.6667 25.6663H16.3334C16.6251 25.6663 16.8701 25.4563 16.9051 25.1763L17.3484 22.0847C18.0601 21.793 18.7134 21.3963 19.3201 20.9413L22.2251 22.108C22.2951 22.1313 22.3651 22.143 22.4351 22.143C22.6334 22.143 22.8317 22.038 22.9367 21.8513L25.2701 17.8147C25.4101 17.558 25.3517 17.243 25.1301 17.068L22.6684 15.143ZM20.3584 13.148C20.4051 13.5097 20.4167 13.7547 20.4167 13.9997C20.4167 14.2447 20.3934 14.5013 20.3584 14.8513L20.1951 16.1697L21.2334 16.9863L22.4934 17.9663L21.6767 19.378L20.1951 18.783L18.9817 18.293L17.9317 19.0863C17.4301 19.4597 16.9517 19.7397 16.4734 19.938L15.2367 20.4397L15.0501 21.758L14.8167 23.333H13.1834L12.9617 21.758L12.7751 20.4397L11.5384 19.938C11.0367 19.728 10.5701 19.4597 10.1034 19.1097L9.04172 18.293L7.80506 18.7947L6.32339 19.3897L5.50672 17.978L6.76672 16.998L7.80506 16.1813L7.64172 14.863C7.60672 14.5013 7.58339 14.233 7.58339 13.9997C7.58339 13.7663 7.60672 13.498 7.64172 13.148L7.80506 11.8297L6.76672 11.013L5.50672 10.033L6.32339 8.62134L7.80506 9.21634L9.01839 9.70634L10.0684 8.91301C10.5701 8.53967 11.0484 8.25967 11.5267 8.06134L12.7634 7.55967L12.9501 6.24134L13.1834 4.66634H14.8051L15.0267 6.24134L15.2134 7.55967L16.4501 8.06134C16.9517 8.27134 17.4184 8.53967 17.8851 8.88967L18.9467 9.70634L20.1834 9.20467L21.6651 8.60967L22.4817 10.0213L21.2334 11.013L20.1951 11.8297L20.3584 13.148ZM14.0001 9.33301C11.4217 9.33301 9.33339 11.4213 9.33339 13.9997C9.33339 16.578 11.4217 18.6663 14.0001 18.6663C16.5784 18.6663 18.6667 16.578 18.6667 13.9997C18.6667 11.4213 16.5784 9.33301 14.0001 9.33301ZM14.0001 16.333C12.7167 16.333 11.6667 15.283 11.6667 13.9997C11.6667 12.7163 12.7167 11.6663 14.0001 11.6663C15.2834 11.6663 16.3334 12.7163 16.3334 13.9997C16.3334 15.283 15.2834 16.333 14.0001 16.333Z" fill="#F1FCDB"/>
</g>
<defs>
<clipPath id="clip0_3_56772">
<rect width="28" height="28" fill="white"/>
</clipPath>
</defs>
</svg>
