<svg width="32" height="32" viewBox="0 0 32 32" fill="none" xmlns="http://www.w3.org/2000/svg">
<g clip-path="url(#clip0_3_36600)">
<path d="M17.3376 11.3833H14.7734L15.1078 19.2988H17.003L17.3376 11.3833Z" fill="#F1FCDB"/>
<path d="M15.9998 23.8696C16.8618 23.8696 17.5606 23.1709 17.5606 22.3088C17.5606 21.4468 16.8618 20.748 15.9998 20.748C15.1378 20.748 14.439 21.4468 14.439 22.3088C14.439 23.1709 15.1378 23.8696 15.9998 23.8696Z" fill="#F1FCDB"/>
<path d="M15.9999 27.3273H27.1739C28.4443 27.3273 29.2383 25.9521 28.6031 24.8518L23.016 15.1749L17.4289 5.49795C16.7937 4.39782 15.2057 4.39782 14.5705 5.49795L8.98348 15.1749L3.39641 24.8518C2.76121 25.952 3.55521 27.3273 4.82561 27.3273H15.9999Z" stroke="#F1FCDB" stroke-miterlimit="10"/>
</g>
<defs>
<clipPath id="clip0_3_36600">
<rect width="32" height="32" fill="white"/>
</clipPath>
</defs>
</svg>
