<svg width="40" height="40" viewBox="0 0 40 40" fill="none" xmlns="http://www.w3.org/2000/svg">
<g clip-path="url(#clip0_3_53327)">
<path d="M21.6725 14.2285H18.4673L18.8853 24.1228H21.2543L21.6725 14.2285Z" fill="#C6FF01"/>
<path d="M20.0003 29.8366C21.0778 29.8366 21.9513 28.9631 21.9513 27.8856C21.9513 26.8081 21.0778 25.9346 20.0003 25.9346C18.9228 25.9346 18.0493 26.8081 18.0493 27.8856C18.0493 28.9631 18.9228 29.8366 20.0003 29.8366Z" fill="#C6FF01"/>
<path d="M20.0001 34.1589H33.9676C35.5556 34.1589 36.5481 32.4399 35.7541 31.0645L28.7703 18.9684L21.7864 6.8722C20.9924 5.49703 19.0074 5.49703 18.2134 6.8722L11.2296 18.9684L4.24576 31.0645C3.45176 32.4397 4.44426 34.1589 6.03226 34.1589H20.0001Z" stroke="#C6FF01" stroke-miterlimit="10"/>
</g>
<defs>
<clipPath id="clip0_3_53327">
<rect width="40" height="40" fill="white"/>
</clipPath>
</defs>
</svg>
