<svg width="28" height="28" viewBox="0 0 28 28" fill="none" xmlns="http://www.w3.org/2000/svg">
<g clip-path="url(#clip0_3_56759)">
<path opacity="0.3" d="M14.0001 4.66699C8.85508 4.66699 4.66675 8.85533 4.66675 14.0003C4.66675 19.1453 8.85508 23.3337 14.0001 23.3337C19.1451 23.3337 23.3334 19.1453 23.3334 14.0003C23.3334 8.85533 19.1451 4.66699 14.0001 4.66699ZM15.1667 19.8337H12.8334V12.8337H15.1667V19.8337ZM15.1667 10.5003H12.8334V8.16699H15.1667V10.5003Z" fill="#F1FCDB"/>
<path d="M12.8333 8.16634H15.1666V10.4997H12.8333V8.16634ZM12.8333 12.833H15.1666V19.833H12.8333V12.833ZM13.9999 2.33301C7.55992 2.33301 2.33325 7.55967 2.33325 13.9997C2.33325 20.4397 7.55992 25.6663 13.9999 25.6663C20.4399 25.6663 25.6666 20.4397 25.6666 13.9997C25.6666 7.55967 20.4399 2.33301 13.9999 2.33301ZM13.9999 23.333C8.85492 23.333 4.66659 19.1447 4.66659 13.9997C4.66659 8.85468 8.85492 4.66634 13.9999 4.66634C19.1449 4.66634 23.3333 8.85468 23.3333 13.9997C23.3333 19.1447 19.1449 23.333 13.9999 23.333Z" fill="#F1FCDB"/>
</g>
<defs>
<clipPath id="clip0_3_56759">
<rect width="28" height="28" fill="white"/>
</clipPath>
</defs>
</svg>
