<svg width="40" height="40" viewBox="0 0 40 40" fill="none" xmlns="http://www.w3.org/2000/svg">
<g filter="url(#filter0_d_3_43371)">
<g clip-path="url(#clip0_3_43371)">
<path d="M27.2167 16.1992C27.6967 15.4525 27.9767 14.5725 27.9767 13.6258C27.9767 10.9592 25.8167 8.8125 23.1633 8.8125C20.7367 8.8125 18.75 10.5858 18.4033 12.9058" stroke="#F1FCDB" stroke-miterlimit="10"/>
<path d="M28.5412 20.0414C28.2389 15.8868 24.7808 12.6079 20.5491 12.6079C17.3993 12.6079 14.6812 14.4278 13.3687 17.0692C13.0205 17.0086 12.6673 16.9616 12.3019 16.9616C8.87721 16.9616 6.10107 19.7379 6.10107 23.1624C6.10107 26.587 8.87734 29.3632 12.3019 29.3632H28.4028C30.9809 29.3632 33.0708 27.2732 33.0708 24.6952C33.0709 22.1648 31.0537 20.1163 28.5412 20.0414Z" stroke="#F1FCDB" stroke-miterlimit="10"/>
<path d="M23.1899 2.63623V6.6233" stroke="#F1FCDB" stroke-miterlimit="10" stroke-linecap="round"/>
<path d="M16.6108 4.80566L18.9826 8.01073" stroke="#F1FCDB" stroke-miterlimit="10" stroke-linecap="round"/>
<path d="M12.6123 10.4634L16.4254 11.6291" stroke="#F1FCDB" stroke-miterlimit="10" stroke-linecap="round"/>
<path d="M33.8987 16.4665L30.0386 15.4683" stroke="#F1FCDB" stroke-miterlimit="10" stroke-linecap="round"/>
<path d="M33.446 9.55371L29.749 11.0474" stroke="#F1FCDB" stroke-miterlimit="10" stroke-linecap="round"/>
<path d="M28.9696 4.26611L26.8862 7.66571" stroke="#F1FCDB" stroke-miterlimit="10" stroke-linecap="round"/>
</g>
</g>
<defs>
<filter id="filter0_d_3_43371" x="0" y="0" width="40" height="40" filterUnits="userSpaceOnUse" color-interpolation-filters="sRGB">
<feFlood flood-opacity="0" result="BackgroundImageFix"/>
<feColorMatrix in="SourceAlpha" type="matrix" values="0 0 0 0 0 0 0 0 0 0 0 0 0 0 0 0 0 0 127 0" result="hardAlpha"/>
<feOffset dy="4"/>
<feGaussianBlur stdDeviation="2"/>
<feComposite in2="hardAlpha" operator="out"/>
<feColorMatrix type="matrix" values="0 0 0 0 0 0 0 0 0 0 0 0 0 0 0 0 0 0 0.25 0"/>
<feBlend mode="normal" in2="BackgroundImageFix" result="effect1_dropShadow_3_43371"/>
<feBlend mode="normal" in="SourceGraphic" in2="effect1_dropShadow_3_43371" result="shape"/>
</filter>
<clipPath id="clip0_3_43371">
<rect width="32" height="32" fill="white" transform="translate(4)"/>
</clipPath>
</defs>
</svg>
