<svg width="272" height="48" viewBox="0 0 272 48" fill="none" xmlns="http://www.w3.org/2000/svg">
<path d="M11.0262 40.993C10.4991 40.993 10.1916 40.5963 10.1916 40.1115C10.1916 39.6266 10.4991 39.2299 10.9823 39.2299C11.2898 39.2299 11.5094 39.4062 11.6851 39.5825L12.2562 38.9655C11.9487 38.6569 11.5972 38.4365 10.9823 38.4365C10.0158 38.4365 9.35693 39.1418 9.35693 40.0674C9.35693 40.993 10.0598 41.6982 10.9823 41.6982C11.5972 41.6982 11.9487 41.4338 12.2562 41.1252L11.729 40.5963C11.5094 40.8167 11.3337 40.993 11.0262 40.993Z" fill="white"/>
<path d="M14.0131 38.5244C13.4859 38.5244 13.1345 38.6126 12.7831 38.7889L13.0027 39.45C13.3102 39.3619 13.5298 39.2737 13.8813 39.2737C14.3645 39.2737 14.5402 39.4941 14.5402 39.8467V39.8908C14.3205 39.8027 14.057 39.8027 13.7495 39.8027C12.9588 39.8027 12.4756 40.1112 12.4756 40.8164C12.4756 41.4335 13.0027 41.7861 13.5738 41.7861C14.057 41.7861 14.2766 41.6098 14.5402 41.3894V41.742H15.4187V39.8908C15.4627 38.9652 15.0234 38.5244 14.0131 38.5244ZM14.5841 40.552C14.5841 40.8605 14.2766 41.125 13.8813 41.125C13.5738 41.125 13.3541 40.9487 13.3541 40.7723C13.3541 40.4638 13.6177 40.3757 13.9691 40.3757C14.1888 40.3757 14.3645 40.4197 14.5402 40.4638V40.552H14.5841Z" fill="white"/>
<path d="M17.0441 37.3779H16.1216V41.6975H17.0441V37.3779Z" fill="white"/>
<path d="M20.0313 38.9208C19.8116 38.6563 19.5041 38.4359 19.0648 38.4359C18.2742 38.4359 17.6152 39.0089 17.6152 40.0668C17.6152 41.1687 18.3181 41.6976 19.0648 41.6976C19.5481 41.6976 19.8555 41.4772 20.0313 41.1687V41.6535H20.9537V37.334H20.0313V38.9208ZM20.0313 40.1108C20.0313 40.6398 19.6798 40.9924 19.2406 40.9924C18.8013 40.9924 18.4499 40.5957 18.4499 40.1108C18.4499 39.5819 18.8013 39.2293 19.2406 39.2293C19.6798 39.2293 20.0313 39.5819 20.0313 40.1108Z" fill="white"/>
<path d="M22.3596 37.1143L21.6567 38.128H22.3596L23.1503 37.4669L22.3596 37.1143Z" fill="white"/>
<path d="M22.5353 38.5244H21.6128V41.6539H22.5353V38.5244Z" fill="white"/>
<path d="M24.5121 38.5244C23.941 38.5244 23.6335 38.6126 23.2821 38.7889L23.5017 39.45C23.8092 39.3619 24.0289 39.2737 24.3803 39.2737C24.8635 39.2737 25.0392 39.4941 25.0392 39.8467V39.8908C24.8196 39.8027 24.556 39.8027 24.2485 39.8027C23.4578 39.8027 22.9746 40.1112 22.9746 40.8164C22.9746 41.4335 23.5017 41.7861 24.0728 41.7861C24.556 41.7861 24.7756 41.6098 25.0392 41.3894V41.742H25.9178V39.8908C25.9617 38.9652 25.5224 38.5244 24.5121 38.5244ZM25.0831 40.552C25.0831 40.8605 24.7756 41.125 24.3803 41.125C24.0728 41.125 23.8532 40.9487 23.8532 40.7723C23.8532 40.4638 24.1167 40.3757 24.4682 40.3757C24.6878 40.3757 24.8635 40.4197 25.0392 40.4638C25.0831 40.4197 25.0831 40.552 25.0831 40.552Z" fill="white"/>
<path d="M30.5298 38.9208C30.3102 38.6563 30.0027 38.4359 29.5634 38.4359C28.7727 38.4359 28.1138 39.0089 28.1138 40.0668C28.1138 41.1687 28.8166 41.6976 29.5634 41.6976C30.0466 41.6976 30.3541 41.4772 30.5298 41.1687V41.6535H31.4523V37.334H30.5298V38.9208ZM30.5298 40.1108C30.5298 40.6398 30.1784 40.9924 29.7391 40.9924C29.3437 40.9924 28.9484 40.6398 28.9484 40.1108C28.9484 39.5819 29.2998 39.2293 29.7391 39.2293C30.1784 39.2293 30.5298 39.5819 30.5298 40.1108Z" fill="white"/>
<path d="M33.5169 38.4365C32.5945 38.4365 31.9355 39.1418 31.9355 40.0674C31.9355 41.0371 32.6384 41.6982 33.5609 41.6982C34.1319 41.6982 34.5712 41.4778 34.8348 41.0812L34.3076 40.5963C34.0441 40.8167 33.8244 40.9048 33.5169 40.9048C33.1216 40.9048 32.858 40.6845 32.7262 40.2878H34.9226C34.9226 40.1996 34.9226 40.1115 34.9226 40.0674C35.0544 39.274 34.6151 38.4365 33.5169 38.4365ZM32.858 39.847C32.902 39.4503 33.1655 39.1858 33.5169 39.1858C33.8684 39.1858 34.1319 39.4503 34.1759 39.847H32.858Z" fill="white"/>
<path d="M39.3595 39.2738L38.3053 37.5107H37.2949V41.6981H38.1735V39.0094L39.3595 40.7725L40.5456 38.9653V41.6981H41.468V37.5107H40.5016L39.3595 39.2738Z" fill="white"/>
<path d="M43.5326 38.5244C42.9615 38.5244 42.654 38.6126 42.3026 38.7889L42.5223 39.45C42.8297 39.3619 43.0494 39.2737 43.4008 39.2737C43.884 39.2737 44.0597 39.4941 44.0597 39.8467V39.8908C43.8401 39.8027 43.5765 39.8027 43.269 39.8027C42.4783 39.8027 41.9951 40.1112 41.9951 40.8164C41.9951 41.4335 42.5222 41.7861 43.0933 41.7861C43.5765 41.7861 43.7962 41.6098 44.0597 41.3894V41.742H44.9383V39.8908C44.9822 38.9652 44.499 38.5244 43.5326 38.5244ZM44.1036 40.552C44.1036 40.8605 43.7962 41.125 43.4008 41.125C43.0933 41.125 42.8737 40.9487 42.8737 40.7723C42.8737 40.4638 43.1372 40.3757 43.4887 40.3757C43.7083 40.3757 43.884 40.4197 44.0597 40.4638C44.1036 40.4197 44.1036 40.552 44.1036 40.552Z" fill="white"/>
<path d="M47.4421 38.4365C46.9589 38.4365 46.7393 38.701 46.5196 38.9655V38.4806H45.5972V41.6101H46.5196V39.847C46.5196 39.4503 46.7393 39.2299 47.0907 39.2299C47.4421 39.2299 47.6618 39.4503 47.6618 39.847V41.6101H48.5842V39.5385C48.4964 38.9214 48.101 38.4365 47.4421 38.4365Z" fill="white"/>
<path d="M50.1217 37.3779H49.1553V38.2154H50.1217V37.3779Z" fill="white"/>
<path d="M50.0778 38.5244H49.1553V41.6539H50.0778V38.5244Z" fill="white"/>
<path d="M50.7368 39.2296H52.3621L50.6489 41.0368V41.698H53.4164V40.9927H51.791L53.4164 39.1415V38.5244H50.7368V39.2296Z" fill="white"/>
<path d="M55.349 38.5244C54.7779 38.5244 54.4704 38.6126 54.119 38.7889L54.3387 39.45C54.6461 39.3619 54.8658 39.2737 55.2172 39.2737C55.7004 39.2737 55.8761 39.4941 55.8761 39.8467V39.8908C55.6565 39.8027 55.3929 39.8027 55.0854 39.8027C54.2947 39.8027 53.8115 40.1112 53.8115 40.8164C53.8115 41.4335 54.3387 41.7861 54.9097 41.7861C55.3929 41.7861 55.6126 41.6098 55.8761 41.3894V41.742H56.7547V39.8908C56.7107 38.9652 56.3154 38.5244 55.349 38.5244ZM55.8322 40.552C55.8322 40.8605 55.5247 41.125 55.1294 41.125C54.8219 41.125 54.6022 40.9487 54.6022 40.7723C54.6022 40.4638 54.8658 40.3757 55.2172 40.3757C55.4368 40.3757 55.6126 40.4197 55.7883 40.4638L55.8322 40.552Z" fill="white"/>
<path d="M58.2921 37.3779H57.3696V41.6975H58.2921V37.3779Z" fill="white"/>
<path d="M60.4007 38.4365C59.4783 38.4365 58.8193 39.1418 58.8193 40.0674C58.8193 41.0371 59.5222 41.6982 60.4447 41.6982C61.0157 41.6982 61.455 41.4778 61.7186 41.0812L61.1914 40.5963C60.9279 40.8167 60.7082 40.9048 60.4007 40.9048C60.0054 40.9048 59.7418 40.6845 59.61 40.2878H61.8064C61.8064 40.1996 61.8064 40.1115 61.8064 40.0674C61.9821 39.274 61.4989 38.4365 60.4007 38.4365ZM59.7418 39.847C59.7857 39.4503 60.0493 39.1858 60.4007 39.1858C60.7522 39.1858 61.0157 39.4503 61.0596 39.847H59.7418Z" fill="white"/>
<path d="M63.8709 39.7586C63.5195 39.6704 63.212 39.5382 63.212 39.406C63.212 39.3178 63.2999 39.1856 63.5195 39.1856C63.7391 39.1856 64.0906 39.2737 64.3981 39.4941L64.7495 38.877C64.3981 38.6566 63.9588 38.5244 63.5634 38.5244C62.9484 38.5244 62.3774 38.877 62.3774 39.4941C62.3774 40.1112 62.9045 40.3316 63.3438 40.4197C63.6952 40.5079 64.0027 40.596 64.0027 40.7723C64.0027 40.9487 63.9149 41.0368 63.6513 41.0368C63.3438 41.0368 62.9924 40.9487 62.641 40.6842L62.2456 41.3013C62.641 41.6098 63.1681 41.7861 63.6513 41.7861C64.3102 41.7861 64.8813 41.4776 64.8813 40.7723C64.8373 40.1112 64.3102 39.8908 63.8709 39.7586Z" fill="white"/>
<path d="M36.5042 21.3784V20.541H36.2406V19.395L35.8453 18.1167V17.9404L35.8892 17.72L35.8453 17.676C35.8453 17.6319 35.8892 17.5878 35.8453 17.4996L35.8013 17.4556C35.7574 17.4556 35.7574 17.4996 35.7135 17.5437C35.7135 17.5878 35.7135 17.5878 35.7135 17.6319L35.6695 17.676L35.7135 18.0726L35.3181 19.3068V20.4528H35.0985V19.6594L34.5274 19.395V17.8963L34.0003 14.9432C34.0442 14.8991 34.0442 14.8991 34.0442 14.855V14.7669C34.0442 14.7228 34.0003 14.7228 33.9564 14.7228L33.7367 13.4886V13.2242H33.8246V13.136V13.0479H33.7367V13.136H33.6489V13.2242H33.7367V13.4886L33.5171 14.7228C33.4732 14.7228 33.4292 14.7228 33.4292 14.7669V14.8109C33.4292 14.855 33.4292 14.855 33.4732 14.8991L32.946 17.9404V19.395L32.5068 19.7917V20.585H32.2871V19.439L31.8918 18.1608L31.9357 17.7641L31.8918 17.72C31.8918 17.72 31.8918 17.676 31.8918 17.6319C31.8918 17.5878 31.8478 17.5437 31.8039 17.5437C31.76 17.5437 31.76 17.5437 31.76 17.5878C31.7161 17.6319 31.76 17.676 31.76 17.7641L31.7161 17.8082V18.0286V18.2049L31.3646 19.5272V20.6732H31.1011V21.5107H32.5068V20.6732V19.8798L33.7807 19.2186L35.0546 19.8798V20.6732V21.5107H36.5042V21.3784ZM31.8039 20.585V19.6594L32.1993 19.4831V20.585H31.8039ZM31.76 19.6153L31.3646 19.439L31.76 18.249V19.6153ZM31.8039 18.249L32.1553 19.439L31.8039 19.6153V18.249ZM31.3646 19.4831L31.76 19.5713V20.4969H31.3646V19.4831ZM32.4189 21.3344H31.1011V20.6291H32.4189V21.3344ZM32.8142 19.5272L32.946 19.395V19.4831L32.8142 19.5272ZM33.7807 13.4005L34.0003 14.6787C33.9564 14.6787 33.9124 14.6787 33.7807 14.6787C33.6928 14.6787 33.6049 14.6787 33.561 14.6787L33.7807 13.4005ZM33.7807 14.855C33.8685 14.855 33.9564 14.855 34.0003 14.855C33.9564 14.8991 33.8685 14.8991 33.7807 14.855ZM33.7807 14.8109C33.8685 14.7669 33.9564 14.7669 34.0003 14.7669C33.9564 14.7669 33.8685 14.8109 33.7807 14.8109ZM33.7807 14.7669C33.6928 14.8109 33.6049 14.7669 33.561 14.7669C33.6049 14.7669 33.7367 14.7669 33.7807 14.7669ZM33.7807 14.855C33.6928 14.8991 33.6049 14.855 33.561 14.855C33.6049 14.855 33.7367 14.855 33.7807 14.855ZM34.6153 19.3068L33.8246 18.6016V18.1167L34.6153 17.8082V19.3068ZM33.7807 18.6016L32.99 19.2627V17.9404L33.7807 18.1608V18.6016ZM32.99 19.3509L33.1657 19.1746V19.3509L32.99 19.439V19.3509ZM33.2096 19.1746L33.3853 18.9983V19.2627L33.2096 19.395V19.1746ZM33.4292 19.0423L33.6049 18.866V19.1746L33.4292 19.2627V19.0423ZM33.6049 18.822L33.7807 18.6456V19.0423L33.6049 19.1305V18.822ZM33.8246 18.6897L34.0003 18.866V19.2186L33.8246 19.0864V18.6897ZM34.0442 18.866L34.2199 19.0423V19.3068L34.0442 19.2186V18.866ZM34.2199 19.0423L34.3956 19.2186V19.395L34.2199 19.3068V19.0423ZM34.3956 19.2186L34.5714 19.395V19.5713L34.3956 19.4831V19.2186ZM34.6153 19.395L34.791 19.5713V19.6153L34.6153 19.5272V19.395ZM34.6153 17.8082L33.8246 18.1167V17.6319H33.8685C33.9124 17.6319 33.9124 17.5878 33.9124 17.5878V17.2352C33.9124 17.0589 33.8685 16.9266 33.8246 16.8826V14.9872C33.9124 14.9872 34.0442 14.9432 34.0882 14.9432L34.6153 17.8082ZM34.0882 14.7228C34.0882 14.6346 34.0882 14.6346 34.0882 14.7228V14.7228ZM33.7807 14.9432V16.8385C33.7367 16.9266 33.6928 17.0589 33.6928 17.1911V17.5437C33.6928 17.5878 33.7367 17.5878 33.7367 17.5878H33.7807V18.0726L32.99 17.8523L33.5171 14.855C33.6049 14.9432 33.6489 14.9432 33.7807 14.9432ZM35.7574 19.6153L35.3621 19.439L35.7574 18.249V19.6153ZM35.8453 18.249L36.1967 19.439L35.8453 19.6153V18.249ZM35.8453 19.6153L36.2406 19.439V20.541H35.8453V19.6153ZM35.3621 19.4831L35.7574 19.5713V20.4969H35.3621V19.4831ZM36.4602 21.3344H35.1424V20.6291H36.4602V21.3344Z" fill="white"/>
<path d="M34.6151 21.0698C34.5711 20.4527 34.2636 19.8797 33.7804 19.6152C33.2972 19.9238 32.9897 20.4527 32.9458 21.0698V21.1579V21.5987V22.7447C32.9458 22.7888 32.9897 22.7888 32.9897 22.7888H34.4833C34.5272 22.7888 34.5272 22.7447 34.5272 22.7447V21.1579V21.1139H34.6151V21.0698ZM32.9897 21.5987V21.1579H34.5272V21.5987H32.9897ZM33.7804 19.6593C34.2636 19.9679 34.4833 20.4968 34.5711 21.0698H33.0337C33.0337 20.4527 33.2972 19.9679 33.7804 19.6593ZM32.9897 22.7447V21.5987H33.6926V22.7888H33.0337C33.0337 22.7888 32.9897 22.7888 32.9897 22.7447ZM34.4833 22.7888H33.8244V21.5987H34.6151V22.7447C34.5272 22.7888 34.5272 22.7888 34.4833 22.7888Z" fill="white"/>
<path d="M36.3286 20.9373C36.3286 20.8492 36.3286 20.7169 36.2846 20.6729C36.2407 20.7169 36.2407 20.8492 36.2407 20.9373V21.2459H36.3286V20.9373Z" fill="white"/>
<path d="M36.1967 20.9373C36.1967 20.8492 36.1967 20.7169 36.1528 20.6729C36.1089 20.7169 36.1089 20.8492 36.1089 20.9373V21.2459H36.1967V20.9373Z" fill="white"/>
<path d="M35.977 20.9373C35.977 20.8492 35.977 20.7169 35.9331 20.6729C35.8892 20.7169 35.8892 20.8492 35.8892 20.9373V21.2459H35.977V20.9373Z" fill="white"/>
<path d="M35.8452 20.9373C35.8452 20.8492 35.8452 20.7169 35.8013 20.6729C35.7573 20.7169 35.7573 20.8492 35.7573 20.9373V21.2459H35.8452V20.9373Z" fill="white"/>
<path d="M35.6255 20.9373C35.6255 20.8492 35.6255 20.7169 35.5815 20.6729C35.5376 20.7169 35.5376 20.8492 35.5376 20.9373V21.2459H35.6255V20.9373Z" fill="white"/>
<path d="M35.4497 20.9373C35.4497 20.8492 35.4497 20.7169 35.4057 20.6729C35.3618 20.7169 35.3618 20.8492 35.3618 20.9373V21.2459H35.4497V20.9373Z" fill="white"/>
<path d="M35.2744 20.9373C35.2744 20.8492 35.2744 20.7169 35.2304 20.6729C35.1426 20.7169 35.1426 20.8492 35.1426 20.9373V21.2459H35.2304V20.9373H35.2744Z" fill="white"/>
<path d="M32.331 20.9373C32.331 20.8492 32.331 20.7169 32.2871 20.6729C32.2432 20.7169 32.2432 20.8492 32.2432 20.9373V21.2459H32.331V20.9373Z" fill="white"/>
<path d="M32.1992 20.9373C32.1992 20.8492 32.1992 20.7169 32.1552 20.6729C32.0674 20.7169 32.0674 20.8492 32.0674 20.9373V21.2459H32.1552V20.9373H32.1992Z" fill="white"/>
<path d="M31.9795 20.9373C31.9795 20.8492 31.9795 20.7169 31.9355 20.6729C31.8916 20.7169 31.8916 20.8492 31.8916 20.9373V21.2459H31.9795V20.9373Z" fill="white"/>
<path d="M31.8037 20.9373C31.8037 20.8492 31.8037 20.7169 31.7598 20.6729C31.7158 20.7169 31.7158 20.8492 31.7158 20.9373V21.2459H31.8037V20.9373Z" fill="white"/>
<path d="M31.6718 20.9373C31.6718 20.8492 31.6718 20.7169 31.6279 20.6729C31.584 20.7169 31.584 20.8492 31.584 20.9373V21.2459H31.6718V20.9373Z" fill="white"/>
<path d="M31.4526 20.9373C31.4526 20.8492 31.4526 20.7169 31.4087 20.6729C31.3647 20.7169 31.3647 20.8492 31.3647 20.9373V21.2459H31.4526V20.9373Z" fill="white"/>
<path d="M31.3207 20.9373C31.3207 20.8492 31.3207 20.7169 31.2768 20.6729C31.189 20.7169 31.189 20.8492 31.189 20.9373V21.2459H31.2768V20.9373H31.3207Z" fill="white"/>
<path d="M33.7806 19.9238C33.4731 19.9238 33.2534 20.1883 33.2534 20.4528C33.2534 20.7172 33.4731 20.9817 33.7806 20.9817C34.088 20.9817 34.3077 20.7172 34.3077 20.4528C34.3077 20.1883 34.088 19.9238 33.7806 19.9238Z" fill="white"/>
<path d="M35.977 21.5107C35.8013 21.5989 35.7573 21.8193 35.7573 21.9956V22.4804C35.7573 22.4804 35.7573 22.5245 35.8013 22.5245H36.1966C36.1966 22.5245 36.2405 22.5245 36.2405 22.4804V22.0837C36.2405 21.8193 36.1527 21.5989 35.977 21.5107Z" fill="white"/>
<path d="M35.2743 21.5107C35.0986 21.5989 35.0547 21.8193 35.0547 21.9956V22.4804C35.0547 22.4804 35.0547 22.5245 35.0986 22.5245H35.494C35.494 22.5245 35.5379 22.5245 35.5379 22.4804V22.0837C35.45 21.8193 35.4061 21.5989 35.2743 21.5107Z" fill="white"/>
<path d="M32.331 21.5107C32.1553 21.5989 32.1113 21.8193 32.1113 21.9956V22.4804C32.1113 22.4804 32.1113 22.5245 32.1553 22.5245H32.5506C32.5506 22.5245 32.5945 22.5245 32.5945 22.4804V22.0837C32.5506 21.8193 32.4188 21.5989 32.331 21.5107Z" fill="white"/>
<path d="M31.5844 21.5107C31.4087 21.5989 31.3647 21.8193 31.3647 21.9956V22.4804C31.3647 22.4804 31.3647 22.5245 31.4087 22.5245H31.804C31.804 22.5245 31.8479 22.5245 31.8479 22.4804V22.0837C31.804 21.8193 31.7162 21.5989 31.5844 21.5107Z" fill="white"/>
<path d="M34.0439 21.3345V21.5549H34.1318V21.3345C34.1318 21.2904 34.1318 21.1582 34.0879 21.1582C34.0439 21.2023 34.0439 21.2904 34.0439 21.3345Z" fill="white"/>
<path d="M33.8247 21.3345V21.5549H33.9126V21.3345C33.9126 21.2904 33.9126 21.1582 33.8686 21.1582C33.8247 21.1582 33.8247 21.2904 33.8247 21.3345Z" fill="white"/>
<path d="M33.605 21.3345V21.5549H33.6928V21.3345C33.6928 21.2904 33.6928 21.1582 33.6489 21.1582C33.6489 21.2023 33.605 21.2904 33.605 21.3345Z" fill="white"/>
<path d="M33.4731 21.3345V21.5549H33.561V21.3345C33.561 21.2904 33.561 21.1582 33.5171 21.1582C33.4731 21.2023 33.4731 21.2904 33.4731 21.3345Z" fill="white"/>
<path d="M33.2534 21.3345V21.5549H33.3413V21.3345C33.3413 21.2904 33.3413 21.1582 33.2973 21.1582C33.2534 21.2023 33.2534 21.2904 33.2534 21.3345Z" fill="white"/>
<path d="M33.0337 21.3345V21.5549H33.1215V21.3345C33.1215 21.2904 33.1215 21.1582 33.0776 21.1582C33.1215 21.2023 33.0337 21.2904 33.0337 21.3345Z" fill="white"/>
<path d="M34.2197 21.3345V21.5549H34.3076V21.3345C34.3076 21.2904 34.3076 21.1582 34.2637 21.1582C34.2197 21.1582 34.2197 21.2904 34.2197 21.3345Z" fill="white"/>
<path d="M34.4394 21.2021C34.3955 21.2462 34.3955 21.2903 34.3955 21.3785V21.5988H34.4834V21.3785C34.4834 21.2903 34.4834 21.2021 34.4394 21.2021Z" fill="white"/>
<path d="M45.3335 5.59863H44.3671H23.2818H22.4033H21.0854L22.4033 6.87687V28.2543L33.8245 35.8796L45.3335 28.2984V6.83279L46.5635 5.59863H45.3335ZM37.0751 21.8631V12.6069L43.2689 7.71434V26.0504L37.0751 21.8631ZM39.5351 24.067H37.3826V23.7584C37.3826 23.7584 37.3826 23.7143 37.4265 23.7143L38.7444 23.3176L40.4575 24.4636H40.2379C40.15 24.4636 40.0183 24.5518 40.0183 24.684V26.1827H39.6668V24.3314C39.7108 24.1992 39.6229 24.067 39.5351 24.067ZM34.6152 24.7281L33.2095 24.4196V23.4499C33.2095 23.4499 33.2095 23.4058 33.2534 23.4058H36.2405C36.2405 23.4058 36.2844 23.4058 36.2844 23.4499V24.067H35.6255C35.5376 24.067 35.4059 24.1551 35.4059 24.2873V26.1386H34.7469V24.9485C34.7469 24.8603 34.703 24.7281 34.6152 24.7281ZM36.2405 23.3617H33.2534C33.1656 23.3617 33.0777 23.4499 33.0777 23.538V24.4636L32.287 24.2873V22.8769C32.287 22.7887 32.1991 22.7006 32.1113 22.7006H29.7392L30.7056 22.0394C30.7495 22.0394 30.7495 21.9953 30.7495 21.9512V21.3782H30.9252V20.5408C30.9252 20.4967 30.9252 20.4526 31.0131 20.4526V18.8658H31.3206L31.5402 18.2047V18.0284C31.5402 18.0284 31.5402 18.0284 31.5402 17.9843L31.4963 17.6758V17.6317C31.4963 17.5876 31.4963 17.5435 31.4963 17.4554C31.5402 17.4113 31.5842 17.3672 31.672 17.3672C31.7159 17.3672 31.8477 17.4113 31.8477 17.5876C31.8477 17.6317 31.8477 17.6317 31.8477 17.6317V17.6758L31.8038 18.2047L32.0234 18.8218H32.6823V17.8521L33.2534 14.8548C32.9459 14.4581 32.5945 14.0614 32.1552 14.2378C31.8038 14.4141 31.5842 14.0614 31.4524 13.8411C31.3645 13.6647 31.1449 13.6207 30.9692 13.797C30.9252 13.8411 30.7935 13.9733 30.7056 14.0614V12.5628C30.7056 12.5628 30.7056 12.5187 30.7495 12.5187C30.7495 12.4747 30.7495 12.4306 30.7056 12.3424L30.6617 12.2984L29.256 11.1964C29.256 11.1524 29.3438 11.1083 29.5635 11.1524C30.2663 11.4168 31.2767 11.549 32.2431 11.6372C31.672 11.549 31.1449 11.3727 30.7495 11.2405C30.6617 11.1964 30.5299 11.1524 30.5299 11.0642C30.5299 10.976 30.6177 10.976 30.7935 10.8879C31.4524 10.6675 32.2431 10.403 32.9898 10.2267C33.0338 10.2267 33.0777 10.2708 33.0338 10.3149C32.9459 10.403 32.7702 10.5353 32.5506 10.6675C32.7702 10.5793 33.0777 10.4471 33.2095 10.403C33.4291 10.3149 33.6927 10.1827 33.8245 10.0945C34.0441 10.0063 34.703 9.5215 35.0105 9.69781C35.0984 9.74188 35.0544 9.78596 35.0105 9.87411C34.6591 10.2708 34.3077 10.7557 33.9123 11.1524C34.703 10.6234 35.318 10.2708 35.7573 9.91819C35.8451 9.83004 36.0208 9.69781 36.2844 9.69781C36.548 9.69781 36.6798 9.78596 36.8115 9.91819C37.163 10.2267 37.5144 10.5353 38.1294 10.7557C38.1733 10.7997 38.3051 10.7997 38.349 10.8438L36.5919 12.2543L36.548 12.2984C36.5041 12.3424 36.548 12.4747 36.548 12.5187V14.2818C36.3283 13.9733 36.1526 13.7088 35.9769 13.4884C35.8891 13.3121 35.7134 13.224 35.5816 13.1799V12.7832H35.7573V12.6951H35.8012V12.5187H35.7134V12.6951H35.5376V12.7832H35.7134V13.224C35.6255 13.2681 35.5376 13.2681 35.4498 13.4003C35.3619 13.4884 35.3619 13.5766 35.3619 13.6207C35.3619 13.797 35.6694 13.8411 35.8891 13.9292C36.1087 14.0174 36.4162 14.0174 36.5041 14.1937C36.548 14.2378 36.548 14.37 36.3283 14.5022C36.1526 14.5904 36.0648 14.7226 35.933 14.8108C35.8451 14.8989 35.7134 15.1193 36.1087 15.3838C36.2844 15.4719 36.5041 15.6923 36.8994 15.9127V16.9265C36.3723 16.6179 35.7134 16.089 35.4498 15.6041C35.2302 15.2074 35.3619 14.9871 35.5376 14.8108C35.7573 14.5904 36.3283 14.4141 36.1966 14.2818C35.9769 14.0614 35.4937 14.1937 35.2741 13.8851C35.1862 13.7088 35.318 13.5766 35.3619 13.5325C35.2741 13.5766 35.1423 13.7088 35.0984 13.797C34.9227 13.9733 34.703 14.37 34.2637 14.943L34.8348 17.8962V18.9981H35.5816L35.8012 18.381L35.7573 17.8521V17.808V17.6317C35.7573 17.5435 35.8451 17.4554 35.933 17.4113C35.9769 17.4113 36.0208 17.4554 36.1087 17.4995C36.1526 17.5435 36.1526 17.6758 36.1087 17.6758V17.7198L36.0648 18.0284V18.0725V18.2488L36.2844 18.9099H36.6358V20.4526C36.6798 20.4526 36.7237 20.5408 36.7237 20.5408V21.3782H36.9433V21.9953H36.8994L36.9433 22.0394L38.7004 23.2295L37.4705 23.5821C37.4265 23.5821 37.3826 23.6703 37.3826 23.7584V24.067H36.548V23.4939C36.4601 23.4058 36.3283 23.3617 36.2405 23.3617ZM30.2224 24.64H28.9046V23.3176L29.6074 22.8328H32.1552C32.1552 22.8328 32.1991 22.8328 32.1991 22.8769V24.1992L31.9795 24.1551C31.9356 24.1551 31.8917 24.1551 31.8038 24.1992C31.7599 24.2433 31.7599 24.2873 31.7599 24.3755V26.1386H30.442V24.8163C30.442 24.7281 30.3542 24.64 30.2224 24.64ZM24.0725 26.1827H23.4575V7.53803H24.0725V26.1827ZM24.38 7.71434L30.5738 12.6069V21.9512L24.38 26.1386V7.71434ZM28.7289 23.4058V24.64H26.9278L28.7289 23.4058ZM43.5325 7.53803H44.1475V26.1827H43.5325V7.53803ZM44.3671 6.78872V7.31764H43.4446C43.4007 7.31764 43.3568 7.31764 43.3568 7.36172L39.5351 10.3149C38.9201 10.2267 38.3929 10.0945 37.9537 9.91819C37.3826 9.69781 36.9433 9.43334 36.4601 9.25704C36.2844 9.21296 36.1526 9.08073 35.8891 9.08073C35.7134 9.08073 35.5376 9.1248 35.3619 9.1248C34.4834 9.34519 33.6488 9.5215 32.9459 9.78596C32.287 10.0063 31.672 10.2708 30.8374 10.4471C30.7495 10.4471 30.6617 10.4912 30.5738 10.4912C30.486 10.4912 30.3542 10.4471 30.3103 10.4471C29.9588 10.2708 29.6074 10.1827 29.1681 10.0945C29.1242 10.0945 28.9924 10.0504 28.9485 10.0504C28.8606 10.0504 28.7728 10.0504 28.6849 10.0945C28.4653 10.1386 28.2896 10.1827 28.0699 10.3149L24.3361 7.36172C24.3361 7.31764 24.2922 7.31764 24.2482 7.31764H23.3258V6.78872C23.2818 6.78872 44.3671 6.78872 44.3671 6.78872ZM43.8839 27.9898L33.8684 34.6895H33.8245L23.809 27.9898C23.765 27.9457 23.765 27.9017 23.8529 27.9017H43.8839C43.8839 27.9017 43.9278 27.9457 43.8839 27.9898ZM23.2818 27.1083V26.4471H24.2043C24.2482 26.4471 24.2482 26.4471 24.2922 26.403L26.4885 24.9044H30.0906V26.2267C30.0906 26.3149 30.1785 26.4471 30.3103 26.4471H31.8038C31.8917 26.4471 32.0234 26.359 32.0234 26.2267V24.5077L34.4834 25.0366V26.2708C34.4834 26.359 34.5712 26.4912 34.703 26.4912H35.4937C35.5816 26.4912 35.7134 26.403 35.7134 26.2708V24.4196H39.4911V26.2708C39.4911 26.359 39.579 26.4912 39.7108 26.4912H40.194C40.2818 26.4912 40.4136 26.403 40.4136 26.2708V24.7722H40.8529L43.3128 26.403C43.3128 26.4471 43.3568 26.4471 43.4007 26.4471H44.3232V27.1083H23.2818Z" fill="white"/>
<path d="M42.3904 28.2988H36.592C36.2405 28.2988 36.0209 28.6514 36.0648 28.96C36.1088 29.0481 36.1088 29.1804 36.1088 29.3126C36.1088 29.3567 36.1088 29.4889 36.1088 29.533C35.8891 30.5027 34.6591 30.1941 34.5713 30.1941C34.5713 30.1941 34.6591 30.2382 34.747 30.3705C34.7909 30.4145 34.8349 30.4586 34.8349 30.5468C34.9227 30.5468 35.5377 30.5908 35.977 30.3705C36.3723 30.1501 36.6798 29.7975 36.6798 29.7975C36.6798 29.7975 37.0312 29.4008 37.0752 29.3126C37.3387 29.0922 37.6902 28.96 38.0416 28.96H41.2044C41.424 28.96 41.5558 28.9159 41.7754 28.7837L42.3904 28.4311C42.4343 28.387 42.4343 28.2988 42.3904 28.2988Z" fill="white"/>
<path d="M39.6669 29.7969H36.9433C36.8994 29.7969 36.8555 29.841 36.7676 29.841L36.6798 30.0173L36.5919 30.1054C36.548 30.1495 36.5919 30.2817 36.6359 30.2817H38.1733C38.7005 30.2817 39.1837 30.1936 39.6669 29.9291C39.7108 29.885 39.7108 29.7969 39.6669 29.7969Z" fill="white"/>
<path d="M40.6333 29.1357H38.1294C37.7341 29.1357 37.3387 29.3121 37.0312 29.6206C36.9873 29.6647 36.9873 29.6647 36.9873 29.6647C36.9873 29.7087 36.9873 29.7087 37.0312 29.7087H39.7108C39.9744 29.7087 40.238 29.6647 40.5015 29.4884L40.7212 29.4002C40.8529 29.268 40.809 29.1357 40.6333 29.1357Z" fill="white"/>
<path d="M37.8658 30.3701C37.8658 30.3701 36.3284 30.3701 36.2844 30.3701C36.2405 30.3701 36.1966 30.3701 36.1966 30.4142C36.1087 30.5023 36.1966 30.7227 36.3723 30.7227H36.9873C37.2948 30.7227 37.6023 30.6346 37.8658 30.4142C37.9098 30.4142 37.9098 30.3701 37.8658 30.3701Z" fill="white"/>
<path d="M35.0106 31.9129C35.0985 31.9129 35.1863 31.8247 35.1863 31.7366V30.855C35.1863 30.7669 35.0985 30.6787 35.0106 30.6787C34.9227 30.6787 34.8349 30.7669 34.8349 30.855V31.7366C34.791 31.8247 34.9227 31.9129 35.0106 31.9129Z" fill="white"/>
<path d="M35.5375 30.6787C35.4497 30.6787 35.3618 30.7669 35.3618 30.855V32.001C35.3618 32.0892 35.4497 32.1773 35.5375 32.1773C35.6254 32.1773 35.7132 32.0892 35.7132 32.001V30.855C35.6693 30.7228 35.6254 30.6787 35.5375 30.6787Z" fill="white"/>
<path d="M36.0209 30.6787C35.9331 30.6787 35.8452 30.7669 35.8452 30.855V31.7366C35.8452 31.8247 35.9331 31.9129 36.0209 31.9129C36.1088 31.9129 36.1966 31.8247 36.1966 31.7366V30.8109C36.1966 30.7228 36.1527 30.6787 36.0209 30.6787Z" fill="white"/>
<path d="M36.5483 30.8105C36.4604 30.8105 36.3726 30.8987 36.3726 30.9869V31.5158C36.3726 31.6039 36.4604 31.6921 36.5483 31.6921C36.6361 31.6921 36.724 31.6039 36.724 31.5158V30.9869C36.6801 30.8987 36.6361 30.8105 36.5483 30.8105Z" fill="white"/>
<path d="M37.0751 30.8105C36.9873 30.8105 36.8994 30.8987 36.8994 30.9869V31.2954C36.8994 31.3835 36.9873 31.4717 37.0751 31.4717C37.163 31.4717 37.2508 31.3835 37.2508 31.2954V30.9869C37.2508 30.8987 37.163 30.8105 37.0751 30.8105Z" fill="white"/>
<path d="M30.5737 29.2677C30.6176 29.3118 30.969 29.7525 30.969 29.7525C30.969 29.7525 31.2765 30.1051 31.6719 30.3255C32.0672 30.5459 32.6822 30.5018 32.814 30.5018C32.814 30.4578 32.8579 30.4137 32.9018 30.3255C32.9458 30.2374 33.0776 30.1492 33.0776 30.1492C32.9897 30.1492 31.6719 30.5018 31.5401 29.4881C31.5401 29.444 31.5401 29.3999 31.5401 29.2677C31.5401 29.1795 31.5401 29.0032 31.584 28.9151C31.6719 28.6065 31.4083 28.2539 31.0569 28.2539H25.3024C25.2584 28.2539 25.2145 28.3421 25.2584 28.3421L25.8734 28.6947C26.0491 28.7828 26.2248 28.871 26.4445 28.871H29.6073C29.9587 28.9151 30.2662 29.0914 30.5737 29.2677Z" fill="white"/>
<path d="M31.057 30.1054L30.9691 30.0173L30.8813 29.841C30.8373 29.7969 30.7934 29.7969 30.7056 29.7969H27.982C27.9381 29.7969 27.8942 29.885 27.9381 29.885C28.4213 30.1054 28.9045 30.2376 29.4317 30.2376H30.9691C31.1009 30.2817 31.1009 30.1936 31.057 30.1054Z" fill="white"/>
<path d="M30.6619 29.6207L30.618 29.5766C30.3544 29.2681 29.9591 29.0918 29.5198 29.0918H27.0159C26.9281 29.0918 26.8402 29.2681 26.972 29.3122L27.1916 29.4003C27.4113 29.4885 27.6748 29.6207 27.9823 29.6207H30.6619Z" fill="white"/>
<path d="M31.4522 30.4142C31.4083 30.3701 31.3643 30.3701 31.3643 30.3701H29.7829C29.739 30.3701 29.739 30.4142 29.7829 30.4142C30.0465 30.6346 30.354 30.7227 30.6615 30.7227H31.2765C31.4522 30.7227 31.584 30.5905 31.4522 30.4142Z" fill="white"/>
<path d="M32.6825 30.6787C32.5947 30.6787 32.5068 30.7669 32.5068 30.855V31.7366C32.5068 31.8247 32.5947 31.9129 32.6825 31.9129C32.7704 31.9129 32.8583 31.8247 32.8583 31.7366V30.855C32.8583 30.7228 32.8143 30.6787 32.6825 30.6787Z" fill="white"/>
<path d="M32.1991 30.6787C32.1113 30.6787 32.0234 30.7669 32.0234 30.855V32.001C32.0234 32.0892 32.1113 32.1773 32.1991 32.1773C32.287 32.1773 32.3749 32.0892 32.3749 32.001V30.855C32.3309 30.7228 32.287 30.6787 32.1991 30.6787Z" fill="white"/>
<path d="M31.6723 30.6787C31.5844 30.6787 31.4966 30.7669 31.4966 30.855V31.7366C31.4966 31.8247 31.5844 31.9129 31.6723 31.9129C31.7601 31.9129 31.848 31.8247 31.848 31.7366V30.8109C31.8041 30.7228 31.7162 30.6787 31.6723 30.6787Z" fill="white"/>
<path d="M31.1449 30.8105C31.0571 30.8105 30.9692 30.8987 30.9692 30.9869V31.5158C30.9692 31.6039 31.0571 31.6921 31.1449 31.6921C31.2328 31.6921 31.3207 31.6039 31.3207 31.5158V30.9869C31.3207 30.8987 31.1889 30.8105 31.1449 30.8105Z" fill="white"/>
<path d="M30.5737 30.8105C30.4858 30.8105 30.3979 30.8987 30.3979 30.9869V31.2954C30.3979 31.3835 30.4858 31.4717 30.5737 31.4717C30.6615 31.4717 30.7494 31.3835 30.7494 31.2954V30.9869C30.7933 30.8987 30.7054 30.8105 30.5737 30.8105Z" fill="white"/>
<path d="M32.8583 29.2242C32.8583 29.1361 32.9023 29.0039 33.034 28.9598C33.078 28.9157 33.078 28.9157 33.078 28.8716C33.078 28.7835 33.034 28.6953 32.9023 28.6953C32.8583 28.6953 32.8144 28.7394 32.7265 28.7394V28.7835C32.7265 28.8275 32.6826 28.8275 32.6826 28.8716C32.6826 29.0479 32.7265 29.1361 32.7705 29.2242C32.8583 29.2683 32.8583 29.2683 32.8583 29.2242Z" fill="white"/>
<path d="M33.1215 29.1801H33.1655C33.2094 29.1801 33.2094 29.136 33.2094 29.0919L33.1655 29.0479H33.1215C33.0776 29.0919 33.0337 29.0919 33.0337 29.136C33.0337 29.136 33.0337 29.136 33.0776 29.136C33.0337 29.136 33.1215 29.136 33.1215 29.1801Z" fill="white"/>
<path d="M4.83228 37.5107L3.03125 41.6981H3.95373L4.30515 40.7725H6.10618L6.45761 41.6981H7.42401L5.62298 37.5107H4.83228ZM4.65657 39.935L5.22763 38.6127L5.79869 39.935H4.65657Z" fill="white"/>
<path d="M8.78576 37.3779H7.86328V41.6975H8.78576V37.3779Z" fill="white"/>
<path d="M33.1654 28.6072L33.5608 28.2546C33.6047 28.2105 33.6047 28.2105 33.6047 28.1664C33.6047 28.1223 33.6047 28.1223 33.5608 28.0783C33.5168 28.0342 33.5168 28.0342 33.4729 28.0342C33.429 28.0342 33.3851 28.0342 33.3851 28.0783L32.9458 28.3868C32.9019 28.4309 32.9019 28.4309 32.9019 28.475C32.9019 28.519 32.9019 28.519 32.9458 28.5631C32.9897 28.6953 33.1215 28.6953 33.1654 28.6072Z" fill="white"/>
<path d="M33.2095 28.6948C33.2095 28.7389 33.2095 28.7389 33.2095 28.783C33.2095 28.9593 33.2973 29.0915 33.4291 29.1356C33.4291 29.1356 33.4291 29.1356 33.473 29.1356C33.517 29.1797 33.5609 29.2237 33.5609 29.3119V29.356H34.132C34.132 29.356 34.3955 29.1356 34.3955 28.7389C34.3955 28.4744 34.132 28.21 33.8245 28.21C33.7805 28.21 33.7366 28.21 33.7366 28.21L33.2095 28.6948ZM33.5609 28.5626C33.6048 28.5626 33.6048 28.5626 33.6487 28.5185C33.6927 28.5185 33.6927 28.4744 33.7366 28.4744C33.7805 28.4744 33.7805 28.5185 33.7805 28.5626C33.7805 28.6067 33.7366 28.6507 33.6927 28.6507C33.6487 28.6507 33.5609 28.6507 33.5609 28.5626Z" fill="white"/>
<path d="M33.8246 32.75C33.7368 32.75 33.6489 32.75 33.605 32.75C33.605 32.75 33.605 32.75 33.605 32.7941C33.605 33.0585 33.605 33.2789 33.605 33.4552C33.605 33.6315 33.605 33.8519 33.605 34.1164C33.605 34.2927 33.6928 34.3809 33.8246 34.3809C33.9125 34.3809 34.0443 34.2927 34.0443 34.1164C34.0443 33.8519 34.0443 33.6315 34.0443 33.4552C34.0443 33.2789 34.0443 33.0585 34.0443 32.7941C34.0443 32.7941 34.0443 32.7941 34.0443 32.75C33.9564 32.75 33.9125 32.75 33.8246 32.75Z" fill="white"/>
<path d="M35.0106 32.6182C34.9227 32.5301 34.7909 32.3979 34.7031 32.2656H34.6591C34.6591 32.2656 34.6591 32.2656 34.6152 32.2656C34.6152 32.3097 34.5713 32.3097 34.5713 32.3538C34.6152 32.3538 34.6591 32.3979 34.6591 32.4419C34.747 32.6182 34.8349 32.7505 34.8788 32.9268V32.9709C34.9227 33.0149 34.9666 33.059 35.0545 33.1912C35.0984 33.2353 35.2302 33.2794 35.2741 33.2353C35.2741 33.2353 35.3181 33.1912 35.3181 33.1472C35.3181 33.1031 35.3181 33.059 35.2741 32.9709C35.1424 32.8827 35.0545 32.7505 35.0106 32.6182Z" fill="white"/>
<path d="M34.7909 32.9703C34.7469 32.794 34.6152 32.6618 34.5712 32.4855C34.5712 32.4414 34.5273 32.4414 34.5273 32.4414C34.4834 32.4855 34.4834 32.4855 34.4395 32.5296C34.4395 32.5296 34.4395 32.5736 34.4834 32.5736C34.5273 32.794 34.5712 32.9263 34.5712 33.1026C34.6152 33.2789 34.7469 33.367 34.7909 33.4993C34.8348 33.5874 34.9666 33.6756 35.0105 33.5874C35.0544 33.5874 35.0544 33.5433 35.0544 33.5433C35.0544 33.4993 35.0544 33.4552 35.0544 33.367C34.9666 33.2348 34.9227 33.1026 34.7909 32.9703Z" fill="white"/>
<path d="M33.561 32.6624C33.4732 32.6624 33.3853 32.6183 33.3414 32.5742C33.3414 32.5742 33.3414 32.5742 33.3414 32.6183C33.2975 32.8387 33.2535 32.9709 33.2535 33.1913C33.2535 33.4117 33.1657 33.5439 33.1657 33.7643C33.1217 33.8525 33.1657 34.0288 33.2535 34.0288C33.3414 34.0288 33.4292 33.9847 33.4732 33.8084C33.5171 33.588 33.561 33.4558 33.6489 33.2354C33.561 33.1031 33.561 32.9268 33.561 32.6624Z" fill="white"/>
<path d="M33.2534 32.6177C33.2534 32.5736 33.2534 32.5736 33.2534 32.6177C33.2534 32.5296 33.2095 32.5296 33.1656 32.4414C33.1216 32.4414 33.1216 32.4414 33.1216 32.4855C33.0338 32.6618 32.9459 32.794 32.902 32.9703C32.8581 33.1466 32.7263 33.2789 32.6824 33.4552C32.6384 33.4993 32.6384 33.5433 32.6824 33.6315C32.6824 33.6756 32.7263 33.6756 32.7263 33.6756C32.7702 33.7196 32.902 33.6756 32.9459 33.5874C33.0338 33.4111 33.1216 33.2789 33.1656 33.1907C33.2095 32.9703 33.2095 32.794 33.2534 32.6177Z" fill="white"/>
<path d="M32.8143 32.9268C32.8582 32.7505 32.99 32.6182 33.0339 32.4419C33.0339 32.3979 33.0778 32.3979 33.1218 32.3538C33.1218 32.3097 33.0778 32.3097 33.0778 32.2656H33.0339C32.9461 32.3538 32.8143 32.486 32.7264 32.6182C32.6386 32.7064 32.5068 32.8386 32.4189 32.9709C32.375 33.0149 32.375 33.059 32.375 33.1472C32.375 33.1912 32.375 33.1912 32.4189 33.2353C32.4629 33.2794 32.5946 33.2794 32.6386 33.1912C32.6386 33.1031 32.7264 33.059 32.8143 32.9268Z" fill="white"/>
<path d="M34.4833 33.1913C34.4393 33.015 34.3954 32.8387 34.3954 32.6183V32.5742C34.3515 32.6183 34.2197 32.6624 34.1758 32.6624V32.7064C34.1758 32.8828 34.1758 33.015 34.1758 33.1031C34.1758 33.1472 34.1758 33.1472 34.2197 33.1913C34.2636 33.3676 34.3076 33.5439 34.3954 33.7643C34.4393 33.8525 34.4833 33.9847 34.6151 33.9847C34.7029 33.9847 34.7908 33.8084 34.7029 33.7202C34.5272 33.5439 34.4833 33.3676 34.4833 33.1913Z" fill="white"/>
<path d="M33.8243 32.6179H33.8682H33.9122C34.3075 32.5738 34.5272 32.3093 34.5711 31.9567C34.5711 31.7363 34.615 31.4719 34.615 31.2955C34.615 31.0752 34.6589 30.6785 34.6589 30.6344C34.6589 30.5903 34.6589 30.5903 34.615 30.5903C34.4393 30.3259 34.1318 30.1055 33.7365 30.1055C33.3411 30.1055 33.0336 30.3259 32.8579 30.5903C32.8579 30.5903 32.8579 30.6344 32.8579 30.6785C32.8579 30.7225 32.9458 31.0752 32.9458 31.2955C32.9458 31.5159 32.9897 31.7804 32.9897 31.9567C33.0336 32.3093 33.2093 32.5297 33.5168 32.6179C33.5608 32.6179 33.6047 32.6619 33.7365 32.6619C33.7804 32.6179 33.8243 32.6179 33.8243 32.6179Z" fill="white"/>
<path d="M32.9897 29.7967V29.8848C32.9897 29.973 33.0776 30.1052 33.2094 30.1052C33.3851 30.0171 33.5608 29.9289 33.8244 29.9289C34.0879 29.9289 34.2197 29.973 34.4394 30.1052C34.5272 30.1052 34.659 30.0171 34.659 29.8848V29.7967C34.659 29.6204 34.5711 29.5322 34.3954 29.5322H33.2094C33.1215 29.5322 32.9897 29.6204 32.9897 29.7967Z" fill="white"/>
<path d="M83.6823 21.5986L83.6384 15.56L80.6513 20.4967H79.2017L76.2586 15.7363V21.5986H73.2275V10.1826H75.9071L79.9485 16.7942L83.902 10.1826H86.5815L86.6255 21.5986H83.6823Z" fill="white"/>
<path d="M96.6848 19.3947H91.8088L90.8863 21.5986H87.5479L92.6435 10.1826H95.8063L100.902 21.5986H97.5194L96.6848 19.3947ZM95.6745 17.0146L94.1809 13.3562L92.6874 17.0146H95.6745Z" fill="white"/>
<path d="M112.85 10.1826V21.5986H110.171L105.075 15.516V21.5986H101.912V10.1826H104.592L109.687 16.2653V10.1826H112.85Z" fill="white"/>
<path d="M115.135 10.1826H118.385V21.5986H115.135V10.1826Z" fill="white"/>
<path d="M130.421 19.0421V21.5986H120.098V19.571L125.941 12.7391H120.274V10.1826H130.202V12.2542L124.403 19.0862H130.421V19.0421Z" fill="white"/>
<path d="M140.217 19.3947H135.341L134.419 21.5986H131.08L136.176 10.1826H139.338L144.434 21.5986H141.14L140.217 19.3947ZM139.295 17.0146L137.801 13.3562L136.307 17.0146H139.295Z" fill="white"/>
<path d="M145.445 10.1826H148.695V19.0421H154.186V21.5986H145.445V10.1826Z" fill="white"/>
<path d="M164.685 19.1303V21.5986H155.46V10.1826H164.509V12.695H158.711V14.5903H163.85V17.0146H158.711V19.1303H164.685Z" fill="white"/>
<path d="M165.739 20.5845L166.837 18.2043C167.848 18.8655 169.297 19.3503 170.615 19.3503C171.933 19.3503 172.46 18.9977 172.46 18.4247C172.46 16.6176 165.959 17.9399 165.959 13.6644C165.959 11.5928 167.672 9.96191 171.055 9.96191C172.548 9.96191 174.086 10.3145 175.228 10.9316L174.217 13.3559C173.119 12.7829 172.021 12.4743 171.055 12.4743C169.649 12.4743 169.21 12.9592 169.21 13.4881C169.21 15.2512 175.711 13.9729 175.711 18.1162C175.711 20.1437 173.998 21.8187 170.615 21.8187C168.638 21.8627 166.794 21.3338 165.739 20.5845Z" fill="white"/>
<path d="M190.207 18.9099H184.365L183.266 21.5986H179.269L185.375 7.89062H189.241L195.347 21.5986H191.305L190.207 18.9099ZM189.109 16.089L187.352 11.7253L185.551 16.089H189.109Z" fill="white"/>
<path d="M207.69 7.89062L201.76 21.5986H197.894L192.008 7.89062H196.225L199.959 16.7942L203.736 7.89062C203.824 7.89063 207.69 7.89062 207.69 7.89062Z" fill="white"/>
<path d="M215.334 18.9099H209.491L208.393 21.5986H204.396L210.501 7.89062H214.367L220.473 21.5986H216.432L215.334 18.9099ZM214.147 16.089L212.346 11.7253L210.545 16.089H214.147Z" fill="white"/>
<path d="M234.706 7.89062V21.5986H231.499L225.393 14.2818V21.5986H221.615V7.89062H224.778L230.884 15.2074V7.89062H234.706Z" fill="white"/>
<path d="M248.631 18.5132V21.5986H236.331V19.1744L243.272 10.976H236.507V7.89062H248.367V10.3149L241.427 18.5132H248.631Z" fill="white"/>
<path d="M260.931 21.5982V18.5569H262.732L259.261 12.1216L255.835 18.5569H257.592V21.5982C257.592 21.5982 252.321 21.5982 249.641 21.5982C252.716 16.2208 259.305 5.42188 259.305 5.42188L269.057 21.6423L260.931 21.5982Z" fill="white"/>
<path d="M260.931 21.5985V18.6013H262.776L259.261 12.166L255.835 18.6013H257.592L257.548 21.5985H260.931Z" fill="#BDE518"/>
<path d="M76.1267 30.1938C76.1267 30.9872 75.5117 31.6484 74.6332 31.6484C73.7546 31.6484 73.0957 31.0313 73.0957 30.1938C73.0957 29.3563 73.7107 28.7393 74.6332 28.7393C75.5117 28.7833 76.1267 29.4004 76.1267 30.1938ZM76.0389 41.7861H73.2714L73.7546 33.1911H75.5996L76.0389 41.7861Z" fill="#0BB7BF"/>
<path d="M89.8762 25.7422V38.9213H87.8555L80.6074 30.0177V38.9213H78.1914V25.7422H80.2121L87.4601 34.6458V25.7422H89.8762Z" fill="#0BB7BF"/>
<path d="M91.6333 33.9402C91.6333 30.943 93.8736 28.7832 96.9925 28.7832C100.111 28.7832 102.352 30.8989 102.352 33.9402C102.352 36.9815 100.111 39.0972 96.9925 39.0972C93.8736 39.0972 91.6333 36.8934 91.6333 33.9402ZM99.9356 33.9402C99.9356 32.0449 98.6617 30.8108 96.9485 30.8108C95.2354 30.8108 94.0054 32.0008 94.0054 33.9402C94.0054 35.8796 95.2793 37.0697 96.9925 37.0697C98.7057 37.0697 99.9356 35.8355 99.9356 33.9402Z" fill="#0BB7BF"/>
<path d="M114.212 38.3474C113.641 38.8323 112.806 39.0086 111.972 39.0086C109.775 39.0086 108.545 37.8185 108.545 35.6147V30.7662H106.92V28.8708H108.545V26.667H110.917V29.0031H113.597V30.8984H110.917V35.7028C110.917 36.6725 111.401 37.2014 112.323 37.2014C112.85 37.2014 113.289 37.1133 113.641 36.8047L114.212 38.3474Z" fill="#0BB7BF"/>
<path d="M124.447 34.6456H116.584C116.848 36.1001 118.078 37.0698 119.835 37.0698C120.977 37.0698 121.855 36.7172 122.558 35.9679L123.832 37.4225C122.91 38.5244 121.504 39.0533 119.791 39.0533C116.452 39.0533 114.256 36.8935 114.256 33.8963C114.256 30.899 116.452 28.7393 119.439 28.7393C122.382 28.7393 124.535 30.8109 124.535 33.9404C124.491 34.1167 124.491 34.4252 124.447 34.6456ZM116.584 33.1029H122.295C122.075 31.6483 121.021 30.6346 119.483 30.6346C117.946 30.6346 116.804 31.6043 116.584 33.1029Z" fill="#0BB7BF"/>
<path d="M140.217 28.8716V42.5796H137.845V37.687C137.01 38.6127 135.912 39.0094 134.682 39.0094C131.739 39.0094 129.586 36.9818 129.586 33.8523C129.586 30.7669 131.739 28.6953 134.682 28.6953C136.088 28.6953 137.186 29.1802 138.021 30.1499V28.8275C138.021 28.8716 140.217 28.8716 140.217 28.8716ZM137.889 33.9405C137.889 32.0452 136.615 30.811 134.902 30.811C133.188 30.811 131.915 32.0452 131.915 33.9405C131.915 35.8358 133.188 37.07 134.902 37.07C136.615 37.07 137.889 35.8358 137.889 33.9405Z" fill="#0BB7BF"/>
<path d="M152.209 28.8712V38.9208H149.969V37.6426C149.178 38.5682 148.036 39.053 146.718 39.053C144.171 39.053 142.414 37.6426 142.414 34.6013V28.8712H144.786V34.2927C144.786 36.0999 145.664 36.9814 147.158 36.9814C148.783 36.9814 149.881 35.9676 149.881 33.9401V28.8271H152.253V28.8712H152.209Z" fill="#0BB7BF"/>
<path d="M163.938 34.6456H156.075C156.339 36.1001 157.569 37.0698 159.326 37.0698C160.468 37.0698 161.347 36.7172 162.049 35.9679L163.323 37.4225C162.401 38.5244 160.995 39.0533 159.282 39.0533C155.943 39.0533 153.747 36.8935 153.747 33.8963C153.747 30.899 155.943 28.7393 158.931 28.7393C161.874 28.7393 164.026 30.8109 164.026 33.9404C163.982 34.1167 163.982 34.4252 163.938 34.6456ZM156.075 33.1029H161.786C161.566 31.6483 160.512 30.6346 158.974 30.6346C157.437 30.6346 156.295 31.6043 156.075 33.1029Z" fill="#0BB7BF"/>
<path d="M175.272 24.9482V38.9207H173.031V37.6425C172.241 38.6122 171.098 39.097 169.693 39.097C166.75 39.097 164.597 37.0695 164.597 33.94C164.597 30.8105 166.75 28.783 169.693 28.783C170.967 28.783 172.153 29.1796 172.943 30.1053V24.9482H175.272ZM172.987 33.94C172.987 32.0447 171.713 30.8105 170 30.8105C168.287 30.8105 167.013 32.0447 167.013 33.94C167.013 35.8353 168.287 37.0695 170 37.0695C171.67 37.0695 172.987 35.8353 172.987 33.94Z" fill="#0BB7BF"/>
<path d="M187 34.6456H179.137C179.401 36.1001 180.631 37.0698 182.388 37.0698C183.53 37.0698 184.409 36.7172 185.111 35.9679L186.385 37.4225C185.463 38.5244 184.057 39.0533 182.344 39.0533C179.005 39.0533 176.809 36.8935 176.809 33.8963C176.809 30.899 179.005 28.7393 181.993 28.7393C184.936 28.7393 187.088 30.8109 187.088 33.9404C187.044 34.1167 187.044 34.4252 187 34.6456ZM179.137 33.1029H184.848C184.628 31.6483 183.574 30.6346 182.036 30.6346C180.499 30.6346 179.357 31.6043 179.137 33.1029Z" fill="#0BB7BF"/>
<path d="M187.396 37.9515L188.318 36.1443C189.197 36.7174 190.558 37.114 191.788 37.114C193.282 37.114 193.897 36.7174 193.897 35.968C193.897 34.0727 187.747 35.8799 187.747 31.8248C187.747 29.9295 189.46 28.6953 192.184 28.6953C193.501 28.6953 194.995 29.0039 195.917 29.5769L194.995 31.384C194.029 30.811 193.106 30.5906 192.14 30.5906C190.69 30.5906 190.031 31.0755 190.031 31.7366C190.031 33.7642 196.181 31.957 196.181 35.924C196.181 37.8193 194.424 39.0094 191.656 39.0094C189.943 39.0534 188.274 38.5686 187.396 37.9515Z" fill="#0BB7BF"/>
<path d="M210.238 33.0589V38.9212H208.041V37.687C207.47 38.5686 206.416 39.0094 204.922 39.0094C202.594 39.0094 201.188 37.7752 201.188 36.0121C201.188 34.3813 202.331 33.0149 205.362 33.0149H207.909V32.8386C207.909 31.4281 207.075 30.6788 205.406 30.6788C204.263 30.6788 203.077 31.0314 202.375 31.6485L201.452 29.9295C202.55 29.092 204.088 28.6953 205.713 28.6953C208.612 28.7835 210.238 30.1058 210.238 33.0589ZM207.865 35.7917V34.6016H205.449C203.868 34.6016 203.429 35.2187 203.429 35.924C203.429 36.7614 204.132 37.3344 205.318 37.3344C206.504 37.3344 207.514 36.8055 207.865 35.7917Z" fill="#0BB7BF"/>
<path d="M218.496 38.3474C217.925 38.8323 217.09 39.0086 216.256 39.0086C214.059 39.0086 212.829 37.8185 212.829 35.6147V30.7662H211.204V28.8708H212.829V26.667H215.202V29.0031H217.881V30.8984H215.202V35.7028C215.202 36.6725 215.729 37.2014 216.607 37.2014C217.134 37.2014 217.574 37.1133 217.925 36.8047L218.496 38.3474Z" fill="#0BB7BF"/>
<path d="M225.481 28.7832V30.9871C225.261 30.943 225.129 30.943 224.91 30.943C223.108 30.943 221.966 31.9568 221.966 34.0284V38.9209H219.638V28.8714H221.878V30.3259C222.625 29.2681 223.811 28.7832 225.481 28.7832Z" fill="#0BB7BF"/>
<path d="M235.057 33.0586V38.9208H232.861V37.6867C232.289 38.5682 231.235 39.009 229.742 39.009C227.413 39.009 226.008 37.7748 226.008 36.0117C226.008 34.3809 227.15 33.0145 230.181 33.0145H232.729V32.8382C232.729 31.4277 231.894 30.6784 230.225 30.6784C229.083 30.6784 227.897 31.031 227.194 31.6481L226.271 29.9291C227.37 29.0916 228.907 28.6949 230.532 28.6949C233.388 28.7831 235.057 30.1054 235.057 33.0586ZM232.729 35.7913V34.6013H230.313C228.731 34.6013 228.292 35.2183 228.292 35.9236C228.292 36.761 228.995 37.334 230.181 37.334C231.367 37.334 232.333 36.8051 232.729 35.7913ZM231.147 27.4608H229.083L231.587 24.9043H234.354L231.147 27.4608Z" fill="#0BB7BF"/>
<path d="M236.155 37.9515L237.078 36.1443C237.956 36.7174 239.318 37.114 240.548 37.114C242.042 37.114 242.657 36.7174 242.657 35.968C242.657 34.0727 236.463 35.8799 236.463 31.8248C236.463 29.9295 238.176 28.6953 240.899 28.6953C242.217 28.6953 243.711 29.0039 244.633 29.5769L243.711 31.384C242.744 30.811 241.822 30.5906 240.856 30.5906C239.406 30.5906 238.747 31.0755 238.747 31.7366C238.747 33.7642 244.897 31.957 244.897 35.924C244.897 37.8193 243.14 39.0094 240.372 39.0094C238.747 39.0534 237.034 38.5686 236.155 37.9515Z" fill="#0BB7BF"/>
<path d="M245.775 37.5549C245.775 36.7174 246.39 36.1003 247.313 36.1003C248.191 36.1003 248.806 36.7174 248.806 37.5549C248.806 38.3923 248.191 39.0094 247.313 39.0094C246.434 39.0535 245.775 38.3923 245.775 37.5549ZM245.951 25.7422H248.719L248.235 34.5576H246.39L245.951 25.7422Z" fill="#0BB7BF"/>
</svg>
