<svg width="40" height="40" viewBox="0 0 40 40" fill="none" xmlns="http://www.w3.org/2000/svg">
<g clip-path="url(#clip0_3_53291)">
<path d="M20 36.9484C27.8709 36.9484 34.2515 30.7548 34.2515 23.1146C34.2515 15.4744 27.8709 9.28076 20 9.28076C12.1291 9.28076 5.74854 15.4744 5.74854 23.1146C5.74854 30.7548 12.1291 36.9484 20 36.9484Z" stroke="#C6FF01" stroke-miterlimit="10" stroke-linecap="round"/>
<path d="M10.7822 12.4952L9.11621 10.2637" stroke="#C6FF01" stroke-miterlimit="10" stroke-linecap="round"/>
<path d="M12.8257 11.0749L11.2061 8.65771" stroke="#C6FF01" stroke-miterlimit="10" stroke-linecap="round"/>
<path d="M23.5885 6.21577H16.3907C15.7292 6.21577 15.1929 5.67944 15.1929 5.01794V4.2491C15.1929 3.5876 15.7292 3.05127 16.3907 3.05127H23.5885C24.25 3.05127 24.7864 3.5876 24.7864 4.2491V5.01794C24.7864 5.6796 24.2502 6.21577 23.5885 6.21577Z" stroke="#C6FF01" stroke-miterlimit="10" stroke-linecap="round"/>
<path d="M12.3263 7.87867L8.04111 10.9547C7.62911 11.2505 7.05544 11.1562 6.75977 10.7442L6.41594 10.2655C6.12027 9.85351 6.21461 9.27984 6.62644 8.98417L10.9116 5.90817C11.3236 5.61251 11.8973 5.70667 12.1929 6.11867L12.5368 6.59734C12.8324 7.00934 12.7381 7.58301 12.3263 7.87867Z" stroke="#C6FF01" stroke-miterlimit="10" stroke-linecap="round"/>
<path d="M27.1934 10.9116L28.778 8.7041" stroke="#C6FF01" stroke-miterlimit="10" stroke-linecap="round"/>
<path d="M29.1577 12.348L30.7634 10.2637" stroke="#C6FF01" stroke-miterlimit="10" stroke-linecap="round"/>
<path d="M31.7514 10.736L27.9802 8.06479C27.4544 7.69229 27.3332 6.96845 27.7095 6.44795L27.7322 6.41662C28.1085 5.89612 28.8399 5.77629 29.3657 6.14862L33.1367 8.81979C33.6625 9.19229 33.7837 9.91612 33.4074 10.4366L33.3847 10.468C33.0085 10.9885 32.2772 11.1085 31.7514 10.736Z" stroke="#C6FF01" stroke-miterlimit="10" stroke-linecap="round"/>
<path d="M17.3112 9.50499C17.2614 9.40532 17.3112 6.21582 17.3112 6.21582" stroke="#C6FF01" stroke-miterlimit="10" stroke-linecap="round"/>
<path d="M22.6436 9.50518L22.6574 6.38818" stroke="#C6FF01" stroke-miterlimit="10" stroke-linecap="round"/>
<path d="M22.858 22.9238C22.2232 23.9597 21.643 24.9443 20.4282 24.9443C19.2133 24.9443 18.2285 23.9595 18.2285 22.7447C18.2285 22.0453 18.5548 21.4223 19.0633 21.0195C19.4383 20.7225 19.9975 20.4705 20.428 20.187" stroke="#C6FF01" stroke-miterlimit="10" stroke-linecap="round"/>
<path d="M22.1489 24.0438C22.1489 24.0438 25.5949 18.7033 26.3111 17.4244C27.0273 16.1456 26.7714 16.2991 26.6181 16.1456C26.4646 15.9921 25.2881 16.8618 25.2881 16.8618L18.8428 21.2609" stroke="#C6FF01" stroke-miterlimit="10" stroke-linecap="round"/>
</g>
<defs>
<clipPath id="clip0_3_53291">
<rect width="40" height="40" fill="white"/>
</clipPath>
</defs>
</svg>
