<svg width="32" height="32" viewBox="0 0 32 32" fill="none" xmlns="http://www.w3.org/2000/svg">
<g clip-path="url(#clip0_3_48601)">
<path d="M1.9668 10.5027L4.73106 15.1843H27.7396L30.0332 10.6792L16.2705 5.64453L1.9668 10.5027Z" stroke="#F1FCDB" stroke-miterlimit="10"/>
<path d="M4.76536 19.2306H27.5044V15.1841H4.73096L4.76536 19.2306Z" stroke="#F1FCDB" stroke-miterlimit="10"/>
<path d="M16.263 12.5432C17.4002 12.5432 18.322 11.6213 18.322 10.4842C18.322 9.34711 17.4002 8.42529 16.263 8.42529C15.1259 8.42529 14.2041 9.34711 14.2041 10.4842C14.2041 11.6213 15.1259 12.5432 16.263 12.5432Z" stroke="#F1FCDB" stroke-miterlimit="10"/>
<path d="M27.4854 19.2327C27.4854 19.2322 27.4853 19.2315 27.4853 19.231H4.75809C4.75715 19.2622 4.75089 19.2924 4.75049 19.3236V19.4224C4.79435 23.2556 9.86649 26.3552 16.1217 26.3552C22.3269 26.3552 27.3624 23.304 27.4854 19.5134C27.4854 19.5134 27.4854 19.2327 27.4854 19.2327Z" stroke="#F1FCDB" stroke-miterlimit="10"/>
</g>
<defs>
<clipPath id="clip0_3_48601">
<rect width="32" height="32" fill="white"/>
</clipPath>
</defs>
</svg>
