<svg width="32" height="32" viewBox="0 0 32 32" fill="none" xmlns="http://www.w3.org/2000/svg">
<g clip-path="url(#clip0_3_38785)">
<path d="M30.3125 23.3944H1.64894C1.30721 23.3944 1.03027 23.1174 1.03027 22.7758V9.27296C1.03027 8.93123 1.30734 8.6543 1.64894 8.6543H30.3125C30.6543 8.6543 30.9312 8.93136 30.9312 9.27296V22.7758C30.9312 23.1175 30.6543 23.3944 30.3125 23.3944Z" stroke="#F1FCDB" stroke-width="0.75" stroke-miterlimit="10"/>
<path d="M9.57121 14.938C9.57121 16.7032 8.24761 17.8003 6.13228 17.8003H4.53761V19.9835H2.70508V12.0649H6.13214C8.24761 12.0649 9.57121 13.1621 9.57121 14.938ZM7.71641 14.938C7.71641 14.0672 7.15041 13.5584 6.03081 13.5584H4.53748V16.3069H6.03081C7.15054 16.3068 7.71641 15.7981 7.71641 14.938Z" fill="#F1FCDB"/>
<path d="M18.0835 19.9835L18.0723 15.2323L15.7418 19.1463H14.9165L12.597 15.3341V19.9835H10.8779V12.0649H12.3937L15.3574 16.9855L18.2763 12.0649H19.7803L19.8027 19.9833L18.0835 19.9835Z" fill="#F1FCDB"/>
<path d="M29.2562 12.0649L25.8279 19.9835H24.0181L20.6021 12.0649H22.5823L24.9919 17.7207L27.4351 12.0649H29.2562Z" fill="#F1FCDB"/>
</g>
<defs>
<clipPath id="clip0_3_38785">
<rect width="32" height="32" fill="white"/>
</clipPath>
</defs>
</svg>
