<svg width="32" height="32" viewBox="0 0 32 32" fill="none" xmlns="http://www.w3.org/2000/svg">
<g clip-path="url(#clip0_3520_52973)">
<path d="M20.5026 13.748H6.89249C6.08463 13.748 5.45489 13.4919 5.01969 12.9867C4.25943 12.104 4.44369 10.7991 4.45276 10.7433C4.49529 10.4609 4.75036 10.2716 5.03889 10.308C5.32236 10.3495 5.51769 10.6127 5.47823 10.8952C5.47623 10.9043 5.35676 11.7952 5.80823 12.3135C6.04009 12.5817 6.39543 12.7113 6.89249 12.7113H20.5026C20.7881 12.7113 21.0209 12.9432 21.0209 13.2296C21.0209 13.5161 20.7881 13.748 20.5026 13.748Z" fill="#F1FCDB"/>
<path d="M2.98382 16.8843C2.53128 16.8843 2.17395 16.7425 2.11622 16.7192C1.85195 16.6088 1.72742 16.3052 1.83675 16.0409C1.94608 15.7757 2.24982 15.6501 2.51195 15.7605C2.64155 15.8121 3.03835 15.9164 3.33395 15.7777C3.52222 15.6907 3.65795 15.5125 3.75102 15.2331C3.84315 14.9628 4.13768 14.816 4.40702 14.9051C4.67835 14.9961 4.82515 15.2897 4.73502 15.5611C4.50115 16.2607 4.07595 16.5795 3.75915 16.7232C3.49502 16.8437 3.22582 16.8843 2.98382 16.8843Z" fill="#F1FCDB"/>
<path d="M6.6517 23.5041C4.7717 23.5041 3.24316 21.9755 3.24316 20.0945C3.24316 18.2145 4.77183 16.686 6.6517 16.686C8.53156 16.686 10.0613 18.2147 10.0613 20.0945C10.0613 21.9755 8.5317 23.5041 6.6517 23.5041ZM6.6517 17.7225C5.3437 17.7225 4.2797 18.7865 4.2797 20.0945C4.2797 21.4025 5.3437 22.4675 6.6517 22.4675C7.9597 22.4675 9.02463 21.4025 9.02463 20.0945C9.02463 18.7865 7.9597 17.7225 6.6517 17.7225Z" fill="#F1FCDB"/>
<path d="M6.65178 21.8175C5.70218 21.8175 4.92871 21.044 4.92871 20.0944C4.92871 19.1448 5.70218 18.3724 6.65178 18.3724C7.60138 18.3724 8.37484 19.1448 8.37484 20.0944C8.37484 21.044 7.60138 21.8175 6.65178 21.8175ZM6.65178 19.4091C6.27311 19.4091 5.96538 19.7168 5.96538 20.0944C5.96538 20.4731 6.27311 20.7808 6.65178 20.7808C7.03044 20.7808 7.33818 20.4731 7.33818 20.0944C7.33818 19.7168 7.03044 19.4091 6.65178 19.4091Z" fill="#F1FCDB"/>
<path d="M23.6349 23.5041C21.754 23.5041 20.2253 21.9755 20.2253 20.0945C20.2253 18.2145 21.754 16.686 23.6349 16.686C25.5159 16.686 27.0445 18.2147 27.0445 20.0945C27.0445 21.9755 25.5159 23.5041 23.6349 23.5041ZM23.6349 17.7225C22.3269 17.7225 21.262 18.7865 21.262 20.0945C21.262 21.4025 22.3269 22.4675 23.6349 22.4675C24.9429 22.4675 26.0079 21.4025 26.0079 20.0945C26.0079 18.7865 24.9428 17.7225 23.6349 17.7225Z" fill="#F1FCDB"/>
<path d="M23.6349 21.8175C22.6853 21.8175 21.9119 21.044 21.9119 20.0944C21.9119 19.1448 22.6853 18.3724 23.6349 18.3724C24.5845 18.3724 25.358 19.1448 25.358 20.0944C25.3579 21.044 24.5845 21.8175 23.6349 21.8175ZM23.6349 19.4091C23.2563 19.4091 22.9485 19.7168 22.9485 20.0944C22.9485 20.4731 23.2563 20.7808 23.6349 20.7808C24.0136 20.7808 24.3213 20.4731 24.3213 20.0944C24.3212 19.7168 24.0135 19.4091 23.6349 19.4091Z" fill="#F1FCDB"/>
<path d="M20.7436 19.8171H9.42236V20.8537H20.7436V19.8171Z" fill="#F1FCDB"/>
<path d="M27.9719 20.8537H26.7673V19.8171H27.9719C28.4093 19.8171 28.7778 19.4476 28.7778 19.0112V15.2767C28.7778 15.0165 28.6887 14.7563 28.5045 14.482L25.9675 10.4964C25.5666 9.89613 24.8742 9.53267 24.117 9.53267H4.60474C3.5974 9.53267 2.71367 10.3597 2.71367 11.3023V19.0113C2.71367 19.4476 3.08314 19.8172 3.52047 19.8172H3.88194V20.8539H3.52047C2.50407 20.8539 1.677 20.0277 1.677 19.0113V11.3021C1.677 9.78053 3.0174 8.49587 4.60474 8.49587H24.1169C25.2203 8.49587 26.2367 9.0324 26.8361 9.9304L29.373 13.9151C29.6646 14.3504 29.8143 14.8109 29.8143 15.2767V19.0112C29.8143 20.0276 28.9883 20.8537 27.9719 20.8537Z" fill="#F1FCDB"/>
<path d="M29.8043 12.9047C29.6423 12.9047 29.4803 12.8277 29.3791 12.684L28.5348 11.4793C28.4619 11.3457 28.3891 11.3387 28.3587 11.3387H27.154C26.8685 11.3387 26.6357 11.1068 26.6357 10.8204C26.6357 10.5339 26.8685 10.3021 27.154 10.3021H28.3587C28.8183 10.3021 29.2252 10.5512 29.4236 10.952L30.2295 12.0889C30.3935 12.3237 30.3368 12.6468 30.1019 12.8108C30.0108 12.8744 29.9076 12.9047 29.8043 12.9047Z" fill="#F1FCDB"/>
<path d="M28.0914 15.554C28.0711 15.554 28.0509 15.5529 28.0306 15.55L25.9837 15.3091C25.3094 15.1451 24.8417 14.8303 24.5279 14.3605L22.6997 11.0724C22.5619 10.8213 22.6511 10.5065 22.9022 10.3668C23.1513 10.2312 23.4671 10.3183 23.6067 10.5683L25.4127 13.8209C25.5585 14.0365 25.8137 14.2025 26.1699 14.2917L28.1521 14.5216C28.4355 14.5551 28.6401 14.8121 28.6057 15.0967C28.5754 15.3597 28.3506 15.554 28.0914 15.554Z" fill="#F1FCDB"/>
<path d="M29.6948 18.83H28.2472C27.6499 18.83 27.2632 18.4473 27.2632 17.8541V16.9389C27.2632 16.3457 27.6499 15.9631 28.2472 15.9631H29.6948V18.83ZM28.2999 17.7904L28.6583 17.7915V16.9999H28.3019L28.2999 17.7904Z" fill="#F1FCDB"/>
</g>
<defs>
<clipPath id="clip0_3520_52973">
<rect width="32" height="32" fill="white"/>
</clipPath>
</defs>
</svg>
