<svg width="72" height="73" viewBox="0 0 72 73" fill="none" xmlns="http://www.w3.org/2000/svg">
<g clip-path="url(#clip0_3530_51612)">
<path d="M45.8804 48.4505H16.0148C14.2421 48.4505 12.8603 47.8886 11.9051 46.7798C10.2368 44.8427 10.6412 41.9792 10.661 41.8571C10.7543 41.2373 11.3141 40.8218 11.9471 40.9019C12.569 40.9931 12.998 41.5706 12.9113 42.1904C12.9068 42.2105 12.6446 44.1653 13.6355 45.3026C14.1443 45.8912 14.924 46.1756 16.0148 46.1756H45.8804C46.5068 46.1756 47.0177 46.6844 47.0177 47.3129C47.0177 47.9414 46.5068 48.4505 45.8804 48.4505Z" fill="#C6FF01"/>
<path d="M7.4375 55.3328C6.4445 55.3328 5.6603 55.0217 5.5337 54.9707C4.9538 54.7286 4.6805 54.062 4.9205 53.4824C5.1605 52.9004 5.8268 52.625 6.4022 52.8671C6.6866 52.9805 7.5575 53.2091 8.2061 52.9049C8.6192 52.7138 8.9171 52.3229 9.1214 51.7097C9.3236 51.1166 9.9701 50.7944 10.5608 50.99C11.1563 51.1898 11.4782 51.8342 11.2805 52.4294C10.7672 53.9645 9.8342 54.6641 9.1391 54.9797C8.5595 55.244 7.9685 55.3328 7.4375 55.3328Z" fill="#C6FF01"/>
<path d="M15.486 69.8591C11.3607 69.8591 8.0061 66.5048 8.0061 62.3771C8.0061 58.2518 11.3604 54.8975 15.486 54.8975C19.6116 54.8975 22.968 58.2518 22.968 62.3771C22.968 66.5045 19.6116 69.8591 15.486 69.8591ZM15.486 57.1721C12.6159 57.1721 10.281 59.507 10.281 62.3771C10.281 65.2472 12.6159 67.5842 15.486 67.5842C18.3561 67.5842 20.6931 65.2472 20.6931 62.3771C20.6931 59.507 18.3564 57.1721 15.486 57.1721Z" fill="#C6FF01"/>
<path d="M15.486 66.158C13.4022 66.158 11.7051 64.4609 11.7051 62.3771C11.7051 60.2933 13.4022 58.5983 15.486 58.5983C17.5698 58.5983 19.2669 60.2933 19.2669 62.3771C19.2669 64.4609 17.5698 66.158 15.486 66.158ZM15.486 60.8732C14.6553 60.8732 13.9797 61.5485 13.9797 62.3771C13.9797 63.2078 14.655 63.8834 15.486 63.8834C16.3167 63.8834 16.9923 63.2081 16.9923 62.3771C16.9923 61.5485 16.317 60.8732 15.486 60.8732Z" fill="#C6FF01"/>
<path d="M52.7537 69.8591C48.6263 69.8591 45.2717 66.5048 45.2717 62.3771C45.2717 58.2518 48.626 54.8975 52.7537 54.8975C56.8811 54.8975 60.2357 58.2518 60.2357 62.3771C60.2357 66.5045 56.8814 69.8591 52.7537 69.8591ZM52.7537 57.1721C49.8836 57.1721 47.5466 59.507 47.5466 62.3771C47.5466 65.2472 49.8836 67.5842 52.7537 67.5842C55.6238 67.5842 57.9608 65.2472 57.9608 62.3771C57.9608 59.507 55.6238 57.1721 52.7537 57.1721Z" fill="#C6FF01"/>
<path d="M52.7538 66.158C50.67 66.158 48.9729 64.4609 48.9729 62.3771C48.9729 60.2933 50.67 58.5983 52.7538 58.5983C54.8376 58.5983 56.5347 60.2933 56.5347 62.3771C56.5347 64.4609 54.8376 66.158 52.7538 66.158ZM52.7538 60.8732C51.9231 60.8732 51.2475 61.5485 51.2475 62.3771C51.2475 63.2078 51.9228 63.8834 52.7538 63.8834C53.5848 63.8834 54.2601 63.2081 54.2601 62.3771C54.2601 61.5485 53.5848 60.8732 52.7538 60.8732Z" fill="#C6FF01"/>
<path d="M46.4094 61.7684H21.5664V64.0433H46.4094V61.7684Z" fill="#C6FF01"/>
<path d="M62.2706 64.0433H59.627V61.7684H62.2706C63.2303 61.7684 64.0388 60.9575 64.0388 60.0002V51.8051C64.0388 51.2342 63.8432 50.6633 63.4391 50.0612L57.872 41.3153C56.9924 39.998 55.4729 39.2003 53.8112 39.2003H10.9943C8.78392 39.2003 6.84472 41.0153 6.84472 43.0835V60.0002C6.84472 60.9578 7.65562 61.7684 8.61532 61.7684H9.40852V64.0433H8.61502C6.38452 64.0433 4.56982 62.2307 4.56982 60.0002V43.0835C4.56982 39.7445 7.51102 36.9254 10.9943 36.9254H53.8112C56.2325 36.9254 58.463 38.1029 59.7782 40.0733L65.3453 48.8171C65.9852 49.7723 66.314 50.783 66.314 51.8051V60.0002C66.3137 62.2304 64.5011 64.0433 62.2706 64.0433Z" fill="#C6FF01"/>
<path d="M66.2915 46.6001C65.936 46.6001 65.5805 46.4312 65.3585 46.1159L63.5057 43.4723C63.3458 43.1792 63.1859 43.1636 63.1193 43.1636H60.4757C59.8493 43.1636 59.3384 42.6548 59.3384 42.0263C59.3384 41.3978 59.8493 40.889 60.4757 40.889H63.1193C64.1279 40.889 65.021 41.4356 65.4563 42.3152L67.2245 44.81C67.5845 45.3254 67.46 46.034 66.9446 46.394C66.7448 46.5335 66.518 46.6001 66.2915 46.6001Z" fill="#C6FF01"/>
<path d="M62.5328 52.4138C62.4884 52.4138 62.444 52.4117 62.3996 52.4048L57.9077 51.8762C56.4281 51.5162 55.4018 50.8253 54.7133 49.7948L50.7014 42.5795C50.3993 42.0287 50.5949 41.3378 51.1457 41.0312C51.6923 40.7336 52.3853 40.9247 52.6919 41.4734L56.6549 48.611C56.9747 49.0841 57.5345 49.4486 58.3166 49.6439L62.6663 50.1482C63.2882 50.2214 63.737 50.7857 63.6614 51.41C63.5945 51.9872 63.1013 52.4138 62.5328 52.4138Z" fill="#C6FF01"/>
<path d="M66.0514 59.6024H62.8747C61.564 59.6024 60.7153 58.7627 60.7153 57.461V55.4528C60.7153 54.1511 61.564 53.3114 62.8747 53.3114H66.0514V59.6024ZM62.9902 57.3209L63.7765 57.323V55.586H62.9944L62.9902 57.3209Z" fill="#C6FF01"/>
<path d="M36 3.1409C30.1533 3.1409 25.4253 7.8695 25.4253 13.7156C25.4253 21.647 36 33.3548 36 33.3548C36 33.3548 46.5747 21.6467 46.5747 13.7156C46.5747 7.8692 41.8461 3.1409 36 3.1409ZM28.4463 13.7159C28.4463 9.5465 31.8303 6.1625 35.9997 6.1625C40.1691 6.1625 43.5531 9.5465 43.5531 13.7159C43.5531 18.0665 39.2025 24.578 35.9997 28.6418C32.8575 24.608 28.4463 18.0209 28.4463 13.7159Z" fill="#C6FF01"/>
<path d="M35.9999 17.4929C38.0859 17.4929 39.7769 15.8019 39.7769 13.7159C39.7769 11.6299 38.0859 9.9389 35.9999 9.9389C33.9139 9.9389 32.2229 11.6299 32.2229 13.7159C32.2229 15.8019 33.9139 17.4929 35.9999 17.4929Z" fill="#C6FF01"/>
</g>
<defs>
<clipPath id="clip0_3530_51612">
<rect width="72" height="72" fill="white" transform="translate(0 0.5)"/>
</clipPath>
</defs>
</svg>
